<svg width="77" height="24" viewBox="0 0 77 24" fill="none" xmlns="http://www.w3.org/2000/svg">
<g clip-path="url(#clip0_132_5631)">
<path d="M66.3281 6.484C65.8569 6.58345 65.4352 6.90831 65.3231 7.25307C65.1946 7.64091 65.3001 8.08842 65.5834 8.3503C65.9129 8.65528 66.2391 8.76798 66.786 8.76135C67.4714 8.75804 67.9261 8.52268 68.1765 8.04533C68.2391 7.92931 68.2522 7.85307 68.2522 7.60776C68.2522 7.33925 68.2424 7.29284 68.1534 7.13041C67.8569 6.59008 67.0892 6.31494 66.3281 6.484Z" fill="#082141"/>
<path d="M8.33589 7.38898V8.27737L8.48086 8.42323C8.56982 8.51605 8.64231 8.62544 8.66867 8.71826C8.73457 8.93704 8.73457 14.3669 8.66867 14.5857C8.64231 14.6785 8.56982 14.7879 8.48086 14.8807L8.33589 15.0265V15.9348V16.8464L10.8169 16.8299C13.4824 16.8166 13.6439 16.8067 14.3654 16.6277C14.9815 16.4752 15.4857 16.1901 15.7328 15.8553C16.0062 15.4807 16.2204 14.8807 16.3127 14.2044C16.3324 14.0553 16.3555 13.1503 16.3654 12.1326C16.3884 9.68621 16.339 8.89726 16.1117 8.22102C15.7525 7.14699 14.9815 6.6829 13.3111 6.53041C13.0969 6.51384 11.9338 6.49726 10.6357 6.49726H8.33589V7.38898ZM12.8432 8.84754C12.9519 8.90389 13.0047 8.96025 13.0574 9.07627C13.1299 9.23207 13.1299 9.25196 13.1397 11.5492C13.1496 14.0951 13.143 14.1647 12.9552 14.3669C12.8169 14.5127 12.6719 14.5591 12.2831 14.579L11.9272 14.5956V11.6685V8.74478L12.316 8.75804C12.6323 8.7713 12.7279 8.78456 12.8432 8.84754Z" fill="#082141"/>
<path d="M24.8759 7.39227V8.2873L25.0077 8.40663C25.2482 8.62542 25.2416 8.5094 25.2317 11.7381C25.2219 14.9271 25.2383 14.695 24.9945 14.9105L24.8759 15.0133V15.9282V16.8398H28.599H32.3222V14.3204V11.8011H30.9219H29.5216V12.7193C29.5183 14.0685 29.4755 14.3138 29.1987 14.4762C29.0735 14.5492 28.9977 14.5691 28.7572 14.579L28.464 14.5923L28.4738 11.7149C28.4837 9.5105 28.4969 8.80442 28.5266 8.71161C28.5826 8.54586 28.7177 8.38674 28.8528 8.3337L28.9615 8.2873V7.39227V6.49724H26.9187H24.8759V7.39227Z" fill="#082141"/>
<path d="M56.7368 7.34917L56.7401 8.20442L56.8423 8.27072C56.9016 8.30719 56.9774 8.39006 57.0169 8.45304C57.0828 8.56906 57.0828 8.60553 57.0828 11.6022C57.0828 14.453 57.0795 14.6453 57.0235 14.7912C56.9905 14.8774 56.9115 14.9934 56.8489 15.0464L56.7368 15.1459V15.9945V16.8398H58.4996H60.2623V15.9845V15.1326L60.1503 15.0232C59.9427 14.821 59.9328 14.7381 59.9328 12.905V11.2774L60.0514 11.2376C60.1173 11.2144 60.2557 11.1978 60.3612 11.1945C60.628 11.1945 60.7829 11.2774 60.8883 11.4895L60.9707 11.6519L60.9905 13.7072C61.0102 15.5602 61.0399 16.2431 61.1157 16.6873L61.1387 16.8232L62.6445 16.8332L64.1502 16.8398V15.9945V15.1459L64.0217 15.0232C63.8306 14.8376 63.8207 14.7282 63.8207 12.8586C63.8207 11.9536 63.8042 11.1282 63.7878 10.9724C63.6856 10.137 63.4056 9.63647 62.8982 9.38785C62.539 9.21216 62.315 9.16906 61.7615 9.16906C61.1058 9.16575 60.7137 9.25525 60.1898 9.51713L59.9328 9.64641V8.07183V6.49724H58.3348H56.7368V7.34917Z" fill="#082141"/>
<path d="M17.6602 7.85636V8.25415H20.708H23.7557V7.85636V7.45857H20.708H17.6602V7.85636Z" fill="#082141"/>
<path d="M20.016 9.13594C19.9633 9.14257 19.7986 9.16577 19.6536 9.18566C18.6816 9.31163 18.0952 9.6597 17.7953 10.2796C17.5317 10.8299 17.5219 10.9293 17.5054 12.8122C17.4856 14.9039 17.5219 15.2619 17.8118 15.8122C18.0326 16.2365 18.3258 16.4951 18.7838 16.6741C19.6701 17.0155 21.3109 17.052 22.5794 16.7569C23.1 16.6343 23.7062 16.3691 24.0357 16.1172L24.2005 15.9912L24.2103 15.0564L24.2169 14.1216H22.8035H21.39L21.3768 14.4597C21.357 15.0133 21.2219 15.1989 20.8397 15.1989C20.5926 15.1989 20.4806 15.1326 20.3818 14.9304C20.3258 14.821 20.3159 14.7116 20.3027 14.1945L20.2895 13.5912H22.2565H24.2268L24.2071 12.537C24.1939 11.8111 24.1741 11.3934 24.1379 11.1879C23.9632 10.1669 23.5349 9.62323 22.6848 9.34809C22.1511 9.17903 21.8743 9.14257 20.9551 9.13263C20.4938 9.126 20.072 9.12931 20.016 9.13594ZM21.1198 10.9227C21.2944 11.0155 21.3636 11.2011 21.3768 11.642L21.39 12.0332H20.8397H20.2862L20.3027 11.6752C20.3192 11.2509 20.3949 11.0453 20.5663 10.9393C20.6981 10.8597 20.9814 10.8498 21.1198 10.9227Z" fill="#082141"/>
<path d="M35.7653 9.13591C35.7126 9.14254 35.5478 9.16575 35.4029 9.18564C34.3024 9.32818 33.683 9.75249 33.4293 10.5348C33.2612 11.0553 33.2612 11.0652 33.2612 13.0608C33.2612 14.9171 33.2612 14.937 33.3403 15.242C33.6303 16.4088 34.3024 16.8298 36.0487 16.9425C36.645 16.979 37.4753 16.9425 37.9662 16.8564C38.9909 16.674 39.5049 16.2862 39.7652 15.4939C39.9267 15.0033 39.9398 14.7746 39.9267 12.8453L39.9135 11.0884L39.8278 10.7635C39.5708 9.8221 39.0502 9.39779 37.8905 9.19558C37.5906 9.14586 36.0256 9.09945 35.7653 9.13591ZM36.935 10.989C37.1294 11.1779 37.1359 11.2475 37.1261 13.1171L37.1162 14.8011L37.0338 14.9503C36.8295 15.3182 36.3155 15.3083 36.1277 14.9337C36.0651 14.8077 36.0618 14.7249 36.0519 13.1436C36.0388 11.3602 36.0487 11.2177 36.2002 11.0354C36.3155 10.8961 36.388 10.8729 36.6285 10.8829C36.8065 10.8928 36.8493 10.9061 36.935 10.989Z" fill="#082141"/>
<path d="M45.2214 9.18232C44.7667 9.25525 44.2791 9.43426 43.9134 9.6663L43.7882 9.74586V9.49724V9.24862H42.2561H40.724V10.1006L40.7273 10.9558L40.8294 11.0221C40.8854 11.0586 40.9645 11.1481 41.0008 11.221C41.0667 11.3503 41.07 11.3967 41.07 12.9779C41.07 14.4696 41.0634 14.6155 41.0106 14.7779C40.9711 14.8906 40.9085 14.9834 40.836 15.0431L40.724 15.1326V15.9845V16.8398H42.4867H44.2495V15.9812V15.1227L44.1671 15.0696C44.0518 14.9934 43.9595 14.7912 43.92 14.5293C43.9035 14.4066 43.887 13.6243 43.887 12.7923V11.2807L44.0419 11.2343C44.2429 11.1779 44.513 11.1845 44.6317 11.2475C44.7569 11.3138 44.8261 11.3934 44.8985 11.5525C44.9513 11.6718 44.9578 11.8873 44.9776 13.8564C44.9908 15.0497 45.0106 16.0807 45.0204 16.1436C45.0303 16.2066 45.0567 16.389 45.0765 16.5481L45.1127 16.8398H46.625H48.1374V15.9912V15.1459L48.0385 15.0597C47.8178 14.874 47.8276 14.9602 47.8046 12.8785C47.7914 11.6652 47.7716 10.916 47.7453 10.7801C47.5377 9.64641 47.0105 9.20221 45.831 9.16575C45.6036 9.15912 45.3302 9.16575 45.2214 9.18232Z" fill="#082141"/>
<path d="M50.6085 9.17239C50.3482 9.20223 50.0582 9.28842 49.8441 9.40444C49.3531 9.663 49.0994 10.1304 48.994 10.9724C48.9512 11.3138 48.9512 14.3437 48.9973 14.7448C49.1192 15.8984 49.4849 16.4387 50.2889 16.6641C50.3844 16.6873 50.6315 16.7205 50.8391 16.7304C51.4322 16.7602 52.0022 16.6608 52.5788 16.4254L52.8489 16.316V16.7171C52.8489 17.4597 52.7567 17.758 52.4997 17.8741C52.1241 18.0398 51.8276 17.7945 51.7715 17.2674L51.7518 17.0718H50.4404H49.1258V18.0133V18.9514L49.4322 19.0873C50.3712 19.4984 51.1949 19.6807 52.2756 19.7138C53.2443 19.7437 53.811 19.6442 54.381 19.3525C54.9082 19.0774 55.3925 18.4707 55.5573 17.884C55.6298 17.6221 55.6298 17.589 55.6495 14.5194C55.666 12.0431 55.6792 11.3967 55.7121 11.3039C55.7649 11.1713 55.8967 11.0155 55.9856 10.9857C56.0416 10.9691 56.0449 10.9127 56.0449 10.1072V9.24864H54.5128H52.9807V9.48068C52.9807 9.61659 52.9676 9.71273 52.9478 9.71273C52.928 9.71273 52.8522 9.67295 52.7765 9.62322C52.2196 9.27184 51.3399 9.08952 50.6085 9.17239ZM52.704 11.2409L52.8489 11.2774V12.9282V14.579L52.6941 14.642C52.4832 14.7216 52.2032 14.7183 52.0582 14.6321C51.8012 14.4829 51.7617 14.2608 51.7617 12.9613C51.7617 11.652 51.8078 11.4265 52.0911 11.2774C52.2526 11.1945 52.47 11.1812 52.704 11.2409Z" fill="#082141"/>
<path d="M65.1057 10.1006L65.109 10.9558L65.2111 11.0221C65.2704 11.0586 65.3462 11.1414 65.3857 11.2044C65.4483 11.3171 65.4516 11.3669 65.4516 12.9779C65.4516 14.8309 65.4516 14.8442 65.2177 15.0464L65.1057 15.1459V15.9945V16.8398H66.8684H68.6311V15.9912V15.1392L68.5191 15.0133C68.4565 14.947 68.3873 14.8309 68.361 14.7613C68.3313 14.6652 68.3181 14.0254 68.3083 11.9403L68.2984 9.24862H66.7037H65.1057V10.1006Z" fill="#082141"/>
<path d="M11.3507 0.0232201C9.56487 0.132612 8.08549 0.520456 6.58965 1.27294C3.74621 2.70499 1.60128 5.20112 0.599658 8.2409C-0.102139 10.3658 -0.18451 12.7326 0.365726 14.9337C1.21908 18.3448 3.54852 21.2287 6.70496 22.7702C7.93064 23.3702 9.12995 23.7216 10.5764 23.9072C11.0937 23.9735 65.8306 23.9702 66.3907 23.9072C69.099 23.589 71.5866 22.3857 73.491 20.4696C75.4613 18.4873 76.6837 15.852 76.9341 13.0608C77.0132 12.1426 76.9605 10.8597 76.8023 9.91825C76.3048 7.00112 74.6706 4.28952 72.3181 2.4862C70.5817 1.15361 68.6575 0.36797 66.4072 0.0762577C65.9656 0.0199032 64.7466 0.0165901 38.7306 0.0132751C23.7623 0.0132751 11.4429 0.0165901 11.3507 0.0232201ZM66.1897 2.86079C68.2753 3.18565 69.9425 3.98786 71.3593 5.35361C72.8979 6.83537 73.8139 8.642 74.1401 10.8232C74.1994 11.2276 74.1994 12.8387 74.1401 13.2431C73.7744 15.6961 72.608 17.758 70.73 19.2663C69.4318 20.3072 67.9557 20.9337 66.16 21.2055C65.8042 21.2586 64.1634 21.2652 38.8789 21.2752C20.5432 21.2818 11.8021 21.2752 11.433 21.2486C10.125 21.1691 8.99157 20.8608 7.84168 20.284C3.92743 18.3116 1.95054 13.8564 3.09713 9.60665C3.90107 6.6398 6.10201 4.28952 9.02781 3.27515C9.66701 3.05637 10.5401 2.87405 11.2189 2.82101C11.4199 2.80775 23.782 2.79449 38.6977 2.79781C64.3709 2.80112 65.8338 2.80443 66.1897 2.86079Z" fill="#082141"/>
</g>
<defs>
<clipPath id="clip0_132_5631">
<rect width="77" height="24" fill="white"/>
</clipPath>
</defs>
</svg>
