<svg width="17" height="17" viewBox="0 0 17 17" fill="none" xmlns="http://www.w3.org/2000/svg">
<path d="M13.9232 9.18213V11.654C13.9235 11.9309 13.8479 12.2025 13.7046 12.4392C13.5614 12.676 13.356 12.8687 13.1109 12.9964L8.72013 15.2555C8.51895 15.3603 8.29556 15.4151 8.06883 15.4151" stroke="#082141" stroke-width="1.5" stroke-linecap="round" stroke-linejoin="round"/>
<path d="M14.5892 5.76375L5.55146 0.915286C5.3475 0.806752 5.12011 0.75 4.88919 0.75C4.65827 0.75 4.43087 0.806752 4.22691 0.915286L1.55584 2.30894C1.31501 2.44123 1.11352 2.63523 0.971965 2.87111C0.830411 3.107 0.753863 3.37632 0.750142 3.65157C0.746422 3.92681 0.815661 4.19811 0.950787 4.43776C1.08591 4.6774 1.28208 4.8768 1.51926 5.01558L10.4618 10.0988C10.679 10.2195 10.9233 10.2829 11.1717 10.2829C11.42 10.2829 11.6643 10.2195 11.8815 10.0988L14.655 8.45571C14.8873 8.31344 15.0782 8.1124 15.2084 7.8728C15.3387 7.6332 15.4037 7.36346 15.397 7.09068C15.3904 6.81791 15.3122 6.55169 15.1704 6.31877C15.0286 6.08586 14.8281 5.89444 14.5892 5.76375Z" stroke="#082141" stroke-width="1.5" stroke-linecap="round" stroke-linejoin="round"/>
<path d="M1.07353 6.40745L10.5862 0.915286C10.7902 0.806752 11.0176 0.75 11.2485 0.75C11.4794 0.75 11.7068 0.806752 11.9108 0.915286L14.5819 2.30894C14.8246 2.43789 15.0289 2.62915 15.1737 2.86317C15.3186 3.09719 15.3988 3.36556 15.4063 3.64086C15.4137 3.91616 15.3481 4.1885 15.2161 4.43003C15.0841 4.67157 14.8905 4.87364 14.655 5.01558L1.07352 12.8569" stroke="#082141" stroke-width="1.5" stroke-linecap="round" stroke-linejoin="round"/>
<path d="M8.06886 15.417V8.81543" stroke="#082141" stroke-width="1.5" stroke-linecap="round" stroke-linejoin="round"/>
<path d="M5.07352 7.0835L1.07352 9.3929" stroke="#082141" stroke-width="1.5" stroke-linecap="round"/>
<path d="M5.57352 13.6729L3.57352 14.8276" stroke="#082141" stroke-width="1.5" stroke-linecap="round"/>
</svg>
