<svg width="16" height="16" viewBox="0 0 16 16" fill="none" xmlns="http://www.w3.org/2000/svg">
<g clip-path="url(#clip0_163_6836)">
<path d="M13.8497 9.09863V11.5705C13.85 11.8474 13.7744 12.119 13.6311 12.3557C13.4879 12.5925 13.2825 12.7852 13.0374 12.9129L8.64662 15.1721C8.44544 15.2768 8.22204 15.3316 7.99532 15.3316C7.76859 15.3316 7.5452 15.2768 7.34401 15.1721L2.95323 12.9129C2.70814 12.7852 2.50275 12.5925 2.3595 12.3557C2.21625 12.119 2.14065 11.8474 2.14093 11.5705V9.09863" fill="#082141" fill-opacity="0.1"/>
<path d="M13.8497 9.09863V11.5705C13.85 11.8474 13.7744 12.119 13.6311 12.3557C13.4879 12.5925 13.2825 12.7852 13.0374 12.9129L8.64662 15.1721C8.44544 15.2768 8.22204 15.3316 7.99532 15.3316C7.76859 15.3316 7.5452 15.2768 7.34401 15.1721L2.95323 12.9129C2.70814 12.7852 2.50275 12.5925 2.3595 12.3557C2.21625 12.119 2.14065 11.8474 2.14093 11.5705V9.09863" stroke="#082141" stroke-width="1.5" stroke-linecap="round" stroke-linejoin="round"/>
<path d="M14.5157 5.68026L5.47795 0.83179C5.27399 0.723256 5.04659 0.666504 4.81567 0.666504C4.58475 0.666504 4.35735 0.723256 4.15339 0.83179L1.48233 2.22545C1.24149 2.35774 1.04 2.55173 0.898449 2.78762C0.756894 3.0235 0.680347 3.29283 0.676626 3.56807C0.672905 3.84331 0.742144 4.11462 0.87727 4.35426C1.0124 4.5939 1.20857 4.7933 1.44574 4.93208L10.3883 10.0153C10.6055 10.136 10.8498 10.1994 11.0982 10.1994C11.3465 10.1994 11.5908 10.136 11.808 10.0153L14.5815 8.37222C14.8138 8.22994 15.0047 8.02891 15.1349 7.78931C15.2651 7.5497 15.3302 7.27997 15.3235 7.00719C15.3168 6.73441 15.2387 6.46819 15.0969 6.23528C14.9551 6.00236 14.7546 5.81095 14.5157 5.68026Z" stroke="#082141" stroke-width="1.5" stroke-linecap="round" stroke-linejoin="round"/>
<path d="M1.47501 5.68026L10.5127 0.83179C10.7167 0.723256 10.9441 0.666504 11.175 0.666504C11.4059 0.666504 11.6333 0.723256 11.8373 0.83179L14.5083 2.22545C14.7511 2.3544 14.9554 2.54566 15.1002 2.77967C15.2451 3.01369 15.3253 3.28207 15.3328 3.55736C15.3402 3.83266 15.2746 4.105 15.1426 4.34654C15.0106 4.58807 14.817 4.79014 14.5815 4.93208L5.60235 10.0153C5.38515 10.136 5.14087 10.1994 4.8925 10.1994C4.64414 10.1994 4.39986 10.136 4.18266 10.0153L1.40915 8.37222C1.17686 8.22994 0.986005 8.02891 0.855761 7.78931C0.725516 7.5497 0.660464 7.27997 0.667138 7.00719C0.673812 6.73441 0.751977 6.46819 0.893782 6.23528C1.03559 6.00236 1.23604 5.81095 1.47501 5.68026Z" stroke="#082141" stroke-width="1.5" stroke-linecap="round" stroke-linejoin="round"/>
<path d="M7.99535 15.3335V8.73193" stroke="#082141" stroke-width="1.5" stroke-linecap="round" stroke-linejoin="round"/>
</g>
<defs>
<clipPath id="clip0_163_6836">
<rect width="16" height="16" fill="white"/>
</clipPath>
</defs>
</svg>
