<svg width="20" height="20" viewBox="0 0 20 20" fill="none" xmlns="http://www.w3.org/2000/svg">
<g clip-path="url(#clip0_132_6271)">
<g opacity="0.1">
<path d="M10 9.375C10 8.87772 10.1975 8.40081 10.5492 8.04917C10.9008 7.69754 11.3777 7.5 11.875 7.5C12.3723 7.5 12.8492 7.69754 13.2008 8.04917C13.5525 8.40081 13.75 8.87772 13.75 9.375C13.75 11.875 10 13.75 10 13.75C10 13.75 6.25 11.875 6.25 9.375C6.25 8.87772 6.44754 8.40081 6.79917 8.04917C7.15081 7.69754 7.62772 7.5 8.125 7.5C8.62228 7.5 9.09919 7.69754 9.45083 8.04917C9.80246 8.40081 10 8.87772 10 9.375Z" fill="#F9F4F0"/>
</g>
<path d="M16.25 3.125H3.75C3.40482 3.125 3.125 3.40482 3.125 3.75V16.25C3.125 16.5952 3.40482 16.875 3.75 16.875H16.25C16.5952 16.875 16.875 16.5952 16.875 16.25V3.75C16.875 3.40482 16.5952 3.125 16.25 3.125Z" stroke="#F9F4F0" stroke-width="1.5" stroke-linecap="round" stroke-linejoin="round"/>
<path d="M13.75 1.875V4.375" stroke="#F9F4F0" stroke-width="1.5" stroke-linecap="round" stroke-linejoin="round"/>
<path d="M6.25 1.875V4.375" stroke="#F9F4F0" stroke-width="1.5" stroke-linecap="round" stroke-linejoin="round"/>
<path d="M10 9.375C10 8.87772 10.1975 8.40081 10.5492 8.04917C10.9008 7.69754 11.3777 7.5 11.875 7.5C12.3723 7.5 12.8492 7.69754 13.2008 8.04917C13.5525 8.40081 13.75 8.87772 13.75 9.375C13.75 11.875 10 13.75 10 13.75C10 13.75 6.25 11.875 6.25 9.375C6.25 8.87772 6.44754 8.40081 6.79917 8.04917C7.15081 7.69754 7.62772 7.5 8.125 7.5C8.62228 7.5 9.09919 7.69754 9.45083 8.04917C9.80246 8.40081 10 8.87772 10 9.375Z" stroke="#F9F4F0" stroke-width="1.5" stroke-linecap="round" stroke-linejoin="round"/>
</g>
<defs>
<clipPath id="clip0_132_6271">
<rect width="20" height="20" fill="white"/>
</clipPath>
</defs>
</svg>
