<svg width="14" height="14" viewBox="0 0 14 14" fill="none" xmlns="http://www.w3.org/2000/svg">
<g clip-path="url(#clip0_247_8739)">
<path opacity="0.08" d="M11.375 3.5H9.625L8.75 2.1875H5.25L4.375 3.5H2.625C2.39294 3.5 2.17038 3.59219 2.00628 3.75628C1.84219 3.92038 1.75 4.14294 1.75 4.375V10.5C1.75 10.7321 1.84219 10.9546 2.00628 11.1187C2.17038 11.2828 2.39294 11.375 2.625 11.375H11.375C11.6071 11.375 11.8296 11.2828 11.9937 11.1187C12.1578 10.9546 12.25 10.7321 12.25 10.5V4.375C12.25 4.14294 12.1578 3.92038 11.9937 3.75628C11.8296 3.59219 11.6071 3.5 11.375 3.5ZM7 9.1875C6.61062 9.1875 6.22998 9.07203 5.90622 8.85571C5.58246 8.63938 5.33012 8.3319 5.18111 7.97216C5.0321 7.61242 4.99311 7.21657 5.06908 6.83467C5.14504 6.45277 5.33255 6.10197 5.60788 5.82663C5.88322 5.5513 6.23402 5.36379 6.61592 5.28783C6.99782 5.21186 7.39367 5.25085 7.75341 5.39986C8.11315 5.54887 8.42063 5.80121 8.63696 6.12497C8.85328 6.44873 8.96875 6.82937 8.96875 7.21875C8.96875 7.74089 8.76133 8.24165 8.39212 8.61087C8.0229 8.98008 7.52214 9.1875 7 9.1875Z" fill="#082141"/>
<path d="M11.375 11.375H2.625C2.39294 11.375 2.17038 11.2828 2.00628 11.1187C1.84219 10.9546 1.75 10.7321 1.75 10.5V4.375C1.75 4.14294 1.84219 3.92038 2.00628 3.75628C2.17038 3.59219 2.39294 3.5 2.625 3.5H4.375L5.25 2.1875H8.75L9.625 3.5H11.375C11.6071 3.5 11.8296 3.59219 11.9937 3.75628C12.1578 3.92038 12.25 4.14294 12.25 4.375V10.5C12.25 10.7321 12.1578 10.9546 11.9937 11.1187C11.8296 11.2828 11.6071 11.375 11.375 11.375Z" stroke="#082141" stroke-width="1.35" stroke-linecap="round" stroke-linejoin="round"/>
<path d="M7 9.1875C8.08731 9.1875 8.96875 8.30606 8.96875 7.21875C8.96875 6.13144 8.08731 5.25 7 5.25C5.91269 5.25 5.03125 6.13144 5.03125 7.21875C5.03125 8.30606 5.91269 9.1875 7 9.1875Z" stroke="#082141" stroke-width="1.35" stroke-linecap="round" stroke-linejoin="round"/>
</g>
<defs>
<clipPath id="clip0_247_8739">
<rect width="14" height="14" fill="white"/>
</clipPath>
</defs>
</svg>
