<svg width="17" height="17" viewBox="0 0 17 17" fill="none" xmlns="http://www.w3.org/2000/svg">
<path d="M0.823608 4.54999H15.8236L15.2279 10.904C15.0351 12.9608 14.9387 13.9891 14.3614 14.6966C14.1743 14.926 13.9542 15.1263 13.7084 15.2913C12.9501 15.8 11.9173 15.8 9.85149 15.8H6.79572C4.72996 15.8 3.69708 15.8 2.93881 15.2913C2.693 15.1263 2.47295 14.926 2.28581 14.6966C1.70853 13.9891 1.61212 12.9608 1.4193 10.904L0.823608 4.54999Z" fill="#082141" fill-opacity="0.04" stroke="#082141" stroke-width="1.5"/>
<path d="M4.32361 7.25V4.75C4.32361 2.54086 6.11447 0.75 8.32361 0.75C10.5327 0.75 12.3236 2.54086 12.3236 4.75V7.25" stroke="#082141" stroke-width="1.5"/>
</svg>
