<svg width="12" height="12" viewBox="0 0 12 12" fill="none" xmlns="http://www.w3.org/2000/svg">
<g clip-path="url(#clip0_199_829)">
<path opacity="0.1" d="M6 1.5C7.19347 1.5 8.33807 1.97411 9.18198 2.81802C10.0259 3.66193 10.5 4.80653 10.5 6C10.5 7.19347 10.0259 8.33807 9.18198 9.18198C8.33807 10.0259 7.19347 10.5 6 10.5V1.5Z" fill="black"/>
<path d="M6 10.5C8.48528 10.5 10.5 8.48528 10.5 6C10.5 3.51472 8.48528 1.5 6 1.5C3.51472 1.5 1.5 3.51472 1.5 6C1.5 8.48528 3.51472 10.5 6 10.5Z" stroke="#082141" stroke-width="1.5" stroke-linecap="round" stroke-linejoin="round"/>
<path d="M6 1.5V10.5" stroke="#082141" stroke-width="1.5" stroke-linecap="round" stroke-linejoin="round"/>
</g>
<defs>
<clipPath id="clip0_199_829">
<rect width="12" height="12" fill="white"/>
</clipPath>
</defs>
</svg>
