<svg width="18" height="18" viewBox="0 0 18 18" fill="none" xmlns="http://www.w3.org/2000/svg">
<g clip-path="url(#clip0_277_410)">
<path opacity="0.1" d="M12.9232 12.9233C15.9566 9.88989 16.6591 5.67435 14.4923 3.50758C12.3255 1.34081 8.10999 2.04333 5.07662 5.0767C2.04326 8.11006 1.34074 12.3256 3.50751 14.4924C5.67428 16.6591 9.88982 15.9566 12.9232 12.9233Z" fill="#E9E1DC"/>
<path d="M12.9232 12.9233C15.9566 9.88989 16.6591 5.67435 14.4923 3.50758C12.3255 1.34081 8.10999 2.04333 5.07662 5.0767C2.04326 8.11006 1.34074 12.3256 3.50751 14.4924C5.67428 16.6591 9.88982 15.9566 12.9232 12.9233Z" stroke="#E9E1DC" stroke-width="1.5" stroke-linecap="round" stroke-linejoin="round"/>
<path d="M14.4922 3.50793C12.7688 3.8595 9.78825 5.05481 9.00004 9.00004C8.21184 12.9453 5.23129 14.1392 3.50793 14.4922" stroke="#E9E1DC" stroke-width="1.5" stroke-linecap="round" stroke-linejoin="round"/>
</g>
<defs>
<clipPath id="clip0_277_410">
<rect width="18" height="18" fill="white"/>
</clipPath>
</defs>
</svg>
