<svg width="14" height="14" viewBox="0 0 14 14" fill="none" xmlns="http://www.w3.org/2000/svg">
<g clip-path="url(#clip0_179_10087)">
<path opacity="0.08" d="M4.55547 11.8125C3.71813 11.4283 3.00868 10.8118 2.51137 10.0363C2.01406 9.26075 1.74981 8.35878 1.75 7.4375V4.8125H11.375V7.4375C11.3752 8.35878 11.1109 9.26075 10.6136 10.0363C10.1163 10.8118 9.40687 11.4283 8.56953 11.8125H4.55547Z" fill="#082141"/>
<path d="M4.55547 11.8125C3.71813 11.4283 3.00868 10.8118 2.51137 10.0363C2.01406 9.26075 1.74981 8.35878 1.75 7.4375V4.8125H11.375V7.4375C11.3752 8.35878 11.1109 9.26075 10.6136 10.0363C10.1163 10.8118 9.40687 11.4283 8.56953 11.8125" stroke="#082141" stroke-linecap="round" stroke-linejoin="round"/>
<path d="M4.8125 1.3125V3.0625" stroke="#082141" stroke-linecap="round" stroke-linejoin="round"/>
<path d="M6.5625 1.3125V3.0625" stroke="#082141" stroke-linecap="round" stroke-linejoin="round"/>
<path d="M8.3125 1.3125V3.0625" stroke="#082141" stroke-linecap="round" stroke-linejoin="round"/>
<path d="M1.75 11.8125H11.375" stroke="#082141" stroke-linecap="round" stroke-linejoin="round"/>
<path d="M11.3753 4.8125C11.8394 4.8125 12.2845 4.99687 12.6127 5.32506C12.9409 5.65325 13.1253 6.09837 13.1253 6.5625V7C13.1253 7.46413 12.9409 7.90925 12.6127 8.23744C12.2845 8.56563 11.8394 8.75 11.3753 8.75H11.1904" stroke="#082141" stroke-linecap="round" stroke-linejoin="round"/>
</g>
<defs>
<clipPath id="clip0_179_10087">
<rect width="14" height="14" fill="white"/>
</clipPath>
</defs>
</svg>
