<svg width="20" height="20" viewBox="0 0 20 20" fill="none" xmlns="http://www.w3.org/2000/svg">
<path d="M3.33333 0.833252H7C8.24991 0.833252 8.87487 0.833252 9.31298 1.15156C9.45447 1.25436 9.5789 1.37879 9.68169 1.52028C10 1.95839 10 2.58334 10 3.83325V16.6666H0" stroke="#F9F4F0" stroke-width="1.5"/>
<path d="M10 5H12.7466C15.0891 5 16.2603 5 17.1112 5.58183C17.3868 5.77028 17.6325 5.99905 17.8401 6.2605C18.481 7.06772 18.5645 8.23598 18.7314 10.5725L18.9371 13.4529C19.0321 14.7828 19.0796 15.4477 18.7657 15.9211C18.6647 16.0735 18.5392 16.2082 18.3944 16.3199C17.9446 16.6667 17.278 16.6667 15.9447 16.6667H10V5Z" fill="#F9F4F0" fill-opacity="0.08" stroke="#F9F4F0" stroke-width="1.5"/>
<circle cx="14.5833" cy="17.0833" r="2.08333" fill="#A26645" stroke="#F9F4F0" stroke-width="1.5"/>
<circle cx="5.41634" cy="17.0833" r="2.08333" fill="#A76C4A" stroke="#F9F4F0" stroke-width="1.5"/>
<path d="M18.333 10.8335L17.1663 10.8335C15.9164 10.8335 15.2915 10.8335 14.8534 10.5152C14.7119 10.4124 14.5874 10.288 14.4846 10.1465C14.1663 9.70836 14.1663 9.08332 14.1663 7.83322C14.1663 6.33596 14.1663 5.00016 14.1663 5.00016" stroke="#F9F4F0" stroke-width="1.5"/>
<path d="M6.66699 10.8335L0.833659 10.8335" stroke="#F9F4F0" stroke-width="1.5"/>
<path d="M6.66699 5.8335L2.50033 5.8335" stroke="#F9F4F0" stroke-width="1.5"/>
</svg>
