<svg width="14" height="14" viewBox="0 0 14 14" fill="none" xmlns="http://www.w3.org/2000/svg">
<g clip-path="url(#clip0_277_443)">
<path opacity="0.08" d="M11.375 1.75H2.625C2.14175 1.75 1.75 2.14175 1.75 2.625V11.375C1.75 11.8582 2.14175 12.25 2.625 12.25H11.375C11.8582 12.25 12.25 11.8582 12.25 11.375V2.625C12.25 2.14175 11.8582 1.75 11.375 1.75Z" fill="#082141"/>
<path d="M3.28125 3.9375C3.64369 3.9375 3.9375 3.64369 3.9375 3.28125C3.9375 2.91881 3.64369 2.625 3.28125 2.625C2.91881 2.625 2.625 2.91881 2.625 3.28125C2.625 3.64369 2.91881 3.9375 3.28125 3.9375Z" fill="#082141"/>
<path d="M7 3.9375C7.36244 3.9375 7.65625 3.64369 7.65625 3.28125C7.65625 2.91881 7.36244 2.625 7 2.625C6.63756 2.625 6.34375 2.91881 6.34375 3.28125C6.34375 3.64369 6.63756 3.9375 7 3.9375Z" fill="#082141"/>
<path d="M10.7188 3.9375C11.0812 3.9375 11.375 3.64369 11.375 3.28125C11.375 2.91881 11.0812 2.625 10.7188 2.625C10.3563 2.625 10.0625 2.91881 10.0625 3.28125C10.0625 3.64369 10.3563 3.9375 10.7188 3.9375Z" fill="#082141"/>
<path d="M3.28125 7.65625C3.64369 7.65625 3.9375 7.36244 3.9375 7C3.9375 6.63756 3.64369 6.34375 3.28125 6.34375C2.91881 6.34375 2.625 6.63756 2.625 7C2.625 7.36244 2.91881 7.65625 3.28125 7.65625Z" fill="#082141"/>
<path d="M7 7.65625C7.36244 7.65625 7.65625 7.36244 7.65625 7C7.65625 6.63756 7.36244 6.34375 7 6.34375C6.63756 6.34375 6.34375 6.63756 6.34375 7C6.34375 7.36244 6.63756 7.65625 7 7.65625Z" fill="#082141"/>
<path d="M10.7188 7.65625C11.0812 7.65625 11.375 7.36244 11.375 7C11.375 6.63756 11.0812 6.34375 10.7188 6.34375C10.3563 6.34375 10.0625 6.63756 10.0625 7C10.0625 7.36244 10.3563 7.65625 10.7188 7.65625Z" fill="#082141"/>
<path d="M3.28125 11.375C3.64369 11.375 3.9375 11.0812 3.9375 10.7188C3.9375 10.3563 3.64369 10.0625 3.28125 10.0625C2.91881 10.0625 2.625 10.3563 2.625 10.7188C2.625 11.0812 2.91881 11.375 3.28125 11.375Z" fill="#082141"/>
<path d="M7 11.375C7.36244 11.375 7.65625 11.0812 7.65625 10.7188C7.65625 10.3563 7.36244 10.0625 7 10.0625C6.63756 10.0625 6.34375 10.3563 6.34375 10.7188C6.34375 11.0812 6.63756 11.375 7 11.375Z" fill="#082141"/>
<path d="M10.7188 11.375C11.0812 11.375 11.375 11.0812 11.375 10.7188C11.375 10.3563 11.0812 10.0625 10.7188 10.0625C10.3563 10.0625 10.0625 10.3563 10.0625 10.7188C10.0625 11.0812 10.3563 11.375 10.7188 11.375Z" fill="#082141"/>
</g>
<defs>
<clipPath id="clip0_277_443">
<rect width="14" height="14" fill="white"/>
</clipPath>
</defs>
</svg>
