<svg width="14" height="14" viewBox="0 0 14 14" fill="none" xmlns="http://www.w3.org/2000/svg">
<g clip-path="url(#clip0_277_456)">
<path opacity="0.08" d="M11.375 7.875C11.375 3.9375 7 0.875 7 0.875C7 0.875 2.625 3.9375 2.625 7.875C2.625 9.03532 3.08594 10.1481 3.90641 10.9686C4.72688 11.7891 5.83968 12.25 7 12.25C8.16032 12.25 9.27312 11.7891 10.0936 10.9686C10.9141 10.1481 11.375 9.03532 11.375 7.875Z" fill="#082141"/>
<path d="M11.375 7.875C11.375 3.9375 7 0.875 7 0.875C7 0.875 2.625 3.9375 2.625 7.875C2.625 9.03532 3.08594 10.1481 3.90641 10.9686C4.72688 11.7891 5.83968 12.25 7 12.25C8.16032 12.25 9.27312 11.7891 10.0936 10.9686C10.9141 10.1481 11.375 9.03532 11.375 7.875Z" stroke="#082141" stroke-width="1.2" stroke-linecap="round" stroke-linejoin="round"/>
<path d="M7.4375 10.5C8.53125 10.3157 9.43961 9.40625 9.625 8.3125" stroke="#082141" stroke-width="1.2" stroke-linecap="round" stroke-linejoin="round"/>
</g>
<defs>
<clipPath id="clip0_277_456">
<rect width="14" height="14" fill="white"/>
</clipPath>
</defs>
</svg>
