<svg width="13" height="13" viewBox="0 0 13 13" fill="none" xmlns="http://www.w3.org/2000/svg">
<g clip-path="url(#clip0_176_9452)">
<path d="M5.20001 0H13V13H5.19747L5.20001 0Z" fill="#FF0000"/>
<path d="M0.000196838 0H5.2002V13H-0.00234222L0.000196838 0Z" fill="#006600"/>
<path fill-rule="evenodd" clip-rule="evenodd" d="M7.4598 8.29258C6.58636 8.26719 2.5848 5.76875 2.55941 5.37012L2.77777 5.00195C3.17386 5.57832 7.26683 8.0082 7.668 7.92188L7.4598 8.29258Z" fill="#FFFF00" stroke="black" stroke-width="0.0177734" stroke-linecap="round" stroke-linejoin="round"/>
<path fill-rule="evenodd" clip-rule="evenodd" d="M2.73206 4.95088C2.65335 5.16162 3.77562 5.85479 5.1264 6.67744C6.47718 7.49756 7.64007 8.00537 7.72894 7.93428L7.76703 7.86064C7.75179 7.88604 7.71117 7.89365 7.65023 7.87588C7.2846 7.76924 6.33246 7.33252 5.15433 6.61904C3.97621 5.90557 2.95042 5.24541 2.793 4.96611C2.78003 4.94016 2.77391 4.91131 2.77523 4.88232H2.77015L2.73714 4.94072L2.73206 4.95088ZM7.48011 8.30244C7.46488 8.33037 7.43695 8.33037 7.38617 8.32783C7.05863 8.28975 6.06585 7.80732 4.89788 7.10654C3.53187 6.28896 2.40453 5.54502 2.52894 5.35205L2.56195 5.29111L2.56703 5.29365C2.45785 5.62373 4.79124 6.95674 4.92835 7.04307C6.2766 7.88096 7.41664 8.36846 7.5182 8.2415L7.48011 8.30244Z" fill="#FFFF00" stroke="black" stroke-width="0.0177734" stroke-linecap="round" stroke-linejoin="round"/>
<path fill-rule="evenodd" clip-rule="evenodd" d="M5.20514 5.61104C6.07604 5.60342 7.15514 5.4917 7.77467 5.24541L7.64264 5.02705C7.27447 5.23018 6.19283 5.36475 5.19752 5.38252C4.0194 5.37236 3.18912 5.26318 2.77272 4.98389L2.64576 5.21494C3.41256 5.5374 4.19459 5.6085 5.20514 5.61104Z" fill="#FFFF00" stroke="black" stroke-width="0.0177734" stroke-linecap="round" stroke-linejoin="round"/>
<path fill-rule="evenodd" clip-rule="evenodd" d="M7.81274 5.25107C7.78988 5.28408 7.38617 5.42373 6.78949 5.52529C6.26337 5.6042 5.73204 5.64324 5.20004 5.64209C4.69063 5.64436 4.18165 5.61213 3.6766 5.54561C3.05453 5.44658 2.72953 5.30947 2.6102 5.26123L2.64067 5.20283C2.97832 5.33591 3.33018 5.42963 3.6893 5.48213C4.19017 5.54765 4.69491 5.57904 5.20004 5.57607C5.7278 5.57642 6.25485 5.53738 6.7768 5.45928C7.38617 5.36025 7.72133 5.2333 7.76703 5.1749L7.81274 5.25107ZM7.6934 5.02764C7.62738 5.07842 7.29731 5.19775 6.7184 5.28916C6.21804 5.36099 5.71315 5.39662 5.20766 5.3958C4.72023 5.3995 4.23316 5.3681 3.75024 5.30186C3.15863 5.22568 2.84633 5.08604 2.73461 5.04541L2.76762 4.98701C2.85395 5.03271 3.15863 5.15459 3.75785 5.24092C4.23856 5.30322 4.72294 5.33291 5.20766 5.32979C5.70893 5.33048 6.20959 5.29484 6.7057 5.22314C7.28969 5.14189 7.60453 4.99463 7.65277 4.95654L7.6934 5.02764ZM2.33598 6.66279C2.87426 6.95225 4.06508 7.09951 5.19496 7.10967C6.22328 7.10967 7.56391 6.94971 8.0641 6.68311L8.04887 6.39365C7.89399 6.63994 6.45942 6.87607 5.18481 6.86592C3.9102 6.85576 2.72699 6.65771 2.33344 6.40381V6.66279" fill="#FFFF00"/>
<path d="M2.33598 6.66279C2.87426 6.95225 4.06508 7.09951 5.19496 7.10967C6.22328 7.10967 7.56391 6.94971 8.0641 6.68311L8.04887 6.39365C7.89399 6.63994 6.45942 6.87607 5.18481 6.86592C3.9102 6.85576 2.72699 6.65771 2.33344 6.40381V6.66279M7.81274 5.25107C7.78988 5.28408 7.38617 5.42373 6.78949 5.52529C6.26337 5.6042 5.73204 5.64324 5.20004 5.64209C4.69063 5.64436 4.18165 5.61213 3.6766 5.54561C3.05453 5.44658 2.72953 5.30947 2.6102 5.26123L2.64067 5.20283C2.97832 5.33591 3.33018 5.42963 3.6893 5.48213C4.19017 5.54765 4.69491 5.57904 5.20004 5.57607C5.7278 5.57642 6.25485 5.53738 6.7768 5.45928C7.38617 5.36025 7.72133 5.2333 7.76703 5.1749L7.81274 5.25107ZM7.6934 5.02764C7.62738 5.07842 7.29731 5.19775 6.7184 5.28916C6.21804 5.36099 5.71315 5.39662 5.20766 5.3958C4.72023 5.3995 4.23316 5.3681 3.75024 5.30186C3.15863 5.22568 2.84633 5.08604 2.73461 5.04541L2.76762 4.98701C2.85395 5.03271 3.15863 5.15459 3.75785 5.24092C4.23856 5.30322 4.72294 5.33291 5.20766 5.32979C5.70893 5.33048 6.20959 5.29484 6.7057 5.22314C7.28969 5.14189 7.60453 4.99463 7.65277 4.95654L7.6934 5.02764Z" stroke="black" stroke-width="0.0177734" stroke-linecap="round" stroke-linejoin="round"/>
<path fill-rule="evenodd" clip-rule="evenodd" d="M8.09205 6.62158V6.69014C8.01587 6.78154 7.54361 6.91865 6.95201 7.0126C6.36601 7.09772 5.77442 7.13846 5.18228 7.13447C4.48658 7.13447 3.93306 7.08369 3.50142 7.01768C3.08727 6.9706 2.68247 6.86192 2.30044 6.69522V6.61396C2.56451 6.78916 3.2729 6.91611 3.51158 6.9542C3.93814 7.02021 4.48912 7.06846 5.18228 7.06846C5.91099 7.06846 6.49498 7.01768 6.94185 6.94912C7.36841 6.88818 7.97271 6.72822 8.09205 6.62158ZM8.09205 6.37529V6.44639C8.01587 6.53525 7.54361 6.67236 6.95201 6.76631C6.36601 6.85143 5.77442 6.89217 5.18228 6.88818C4.48658 6.88818 3.93306 6.8374 3.50396 6.77393C3.08882 6.72622 2.68316 6.61667 2.30044 6.44893V6.36768C2.56451 6.54287 3.2729 6.67236 3.51158 6.70791C3.94068 6.77393 4.49165 6.82471 5.18228 6.82471C5.91099 6.82471 6.49498 6.77393 6.94185 6.70283C7.36841 6.64189 7.97271 6.48193 8.09205 6.37529ZM5.19244 8.2415C3.95845 8.23389 2.89966 7.90635 2.67623 7.85049L2.83873 8.10439C3.23228 8.27197 4.26568 8.5208 5.20513 8.49287C6.14458 8.46494 6.9647 8.39131 7.54107 8.11201L7.70865 7.84541C7.31509 8.03076 5.97447 8.2415 5.19498 8.2415" fill="#FFFF00"/>
<path d="M5.19244 8.2415C3.95845 8.23389 2.89966 7.90635 2.67623 7.85049L2.83873 8.10439C3.23228 8.27197 4.26568 8.5208 5.20513 8.49287C6.14458 8.46494 6.9647 8.39131 7.54107 8.11201L7.70865 7.84541C7.31509 8.03076 5.97447 8.2415 5.19498 8.2415M8.09205 6.62158V6.69014C8.01587 6.78154 7.54361 6.91865 6.95201 7.0126C6.36601 7.09772 5.77442 7.13846 5.18228 7.13447C4.48658 7.13447 3.93306 7.08369 3.50142 7.01768C3.08727 6.9706 2.68247 6.86192 2.30044 6.69522V6.61396C2.56451 6.78916 3.2729 6.91611 3.51158 6.9542C3.93814 7.02021 4.48912 7.06846 5.18228 7.06846C5.91099 7.06846 6.49497 7.01768 6.94185 6.94912C7.36841 6.88818 7.97271 6.72822 8.09205 6.62158ZM8.09205 6.37529V6.44639C8.01587 6.53525 7.54361 6.67236 6.95201 6.76631C6.36601 6.85143 5.77442 6.89217 5.18228 6.88818C4.48658 6.88818 3.93306 6.8374 3.50396 6.77393C3.08882 6.72622 2.68316 6.61667 2.30044 6.44893V6.36768C2.56451 6.54287 3.2729 6.67236 3.51158 6.70791C3.94068 6.77393 4.49165 6.82471 5.18228 6.82471C5.91099 6.82471 6.49497 6.77393 6.94185 6.70283C7.36841 6.64189 7.97271 6.48193 8.09205 6.37529Z" stroke="black" stroke-width="0.0177734" stroke-linecap="round" stroke-linejoin="round"/>
<path fill-rule="evenodd" clip-rule="evenodd" d="M7.60453 8.05166C7.57979 8.08934 7.5544 8.12658 7.52836 8.16338C7.24025 8.25896 6.94586 8.33446 6.64731 8.38936C6.16822 8.4775 5.68209 8.5217 5.19496 8.52139C4.10063 8.50615 3.20434 8.29287 2.78285 8.11006L2.74731 8.05166L2.75492 8.0415L2.81078 8.06436C3.58169 8.31981 4.38793 8.45261 5.20004 8.45791C5.70785 8.46045 6.21567 8.39951 6.62445 8.32842C7.25414 8.20146 7.50805 8.10752 7.58676 8.06436L7.60453 8.05166ZM7.74926 7.81299H7.7518C7.73341 7.84528 7.71479 7.87745 7.69594 7.90947C7.55121 7.96025 7.15512 8.07705 6.57875 8.1583C6.19789 8.20908 5.96176 8.25986 5.20766 8.2751C4.34363 8.26578 3.48499 8.13762 2.6559 7.89424L2.62543 7.83076C3.46756 8.06188 4.33466 8.18977 5.20766 8.21162C5.89828 8.19639 6.19281 8.14561 6.5686 8.09229C7.24145 7.99072 7.57914 7.879 7.6807 7.846C7.67992 7.84427 7.67907 7.84258 7.67816 7.84092L7.74926 7.81299Z" fill="#FFFF00" stroke="black" stroke-width="0.0152344" stroke-linecap="round" stroke-linejoin="round"/>
<path fill-rule="evenodd" clip-rule="evenodd" d="M7.76449 6.43369C7.76956 7.24619 7.35316 7.97744 7.018 8.2999C6.52568 8.77872 5.86895 9.05123 5.18226 9.06162C4.36214 9.07686 3.59027 8.54111 3.38206 8.30752C2.97581 7.84795 2.64574 7.2665 2.63558 6.47939C2.68636 5.59072 3.03421 4.97373 3.53949 4.54971C4.02841 4.14755 4.64315 3.93005 5.27621 3.93525C5.92113 3.95303 6.67777 4.27041 7.19828 4.9001C7.53851 5.31143 7.68831 5.7583 7.76449 6.43623V6.43369ZM5.18988 3.65088C6.7641 3.65088 8.05902 4.93311 8.05902 6.50225C8.05432 7.26011 7.74997 7.98532 7.21241 8.51956C6.67485 9.05379 5.94775 9.35363 5.18988 9.35361C3.61566 9.35361 2.33089 8.07393 2.33089 6.50225C2.33089 4.93057 3.61566 3.65088 5.18988 3.65088Z" fill="#FFFF00" stroke="black" stroke-width="0.0177734" stroke-linecap="round" stroke-linejoin="round"/>
<path fill-rule="evenodd" clip-rule="evenodd" d="M5.19751 3.64072C6.77173 3.64072 8.05649 4.92803 8.05649 6.50225C8.05649 8.07647 6.77173 9.36377 5.19751 9.36377C4.43876 9.36176 3.71171 9.05928 3.17543 8.52253C2.63915 7.98578 2.33732 7.25845 2.33598 6.49971C2.33799 5.7414 2.64012 5.01473 3.17632 4.47853C3.71253 3.94232 4.4392 3.64019 5.19751 3.63818V3.64072ZM2.39946 6.50225C2.39946 8.04092 3.66391 9.30029 5.19751 9.30029C6.7311 9.30029 7.99301 8.04092 7.99301 6.50225C7.99301 4.96357 6.7311 3.70674 5.19751 3.70674C4.45668 3.70941 3.74692 4.00471 3.22284 4.52832C2.69875 5.05193 2.4028 5.76142 2.39946 6.50225Z" fill="#FFFF00" stroke="black" stroke-width="0.0177734" stroke-linecap="round" stroke-linejoin="round"/>
<path fill-rule="evenodd" clip-rule="evenodd" d="M5.20005 3.87939C6.63462 3.87939 7.81782 5.06006 7.81782 6.49971C7.81782 7.94189 6.63462 9.12002 5.20005 9.12002C4.50548 9.11801 3.83989 8.84138 3.34852 8.35048C2.85715 7.85959 2.57987 7.19427 2.57719 6.49971C2.57719 5.06006 3.7604 3.87939 5.19751 3.87939H5.20005ZM2.64067 6.49971C2.64067 7.90635 3.79594 9.05654 5.20005 9.05654C6.60161 9.05654 7.75688 7.90635 7.75688 6.49971C7.75688 5.09307 6.60161 3.94287 5.19751 3.94287C3.79341 3.94287 2.64067 5.09307 2.64067 6.49971Z" fill="#FFFF00" stroke="black" stroke-width="0.0177734" stroke-linecap="round" stroke-linejoin="round"/>
<path fill-rule="evenodd" clip-rule="evenodd" d="M5.31431 3.63086H5.06802V9.3793H5.31431V3.63086Z" fill="#FFFF00" stroke="black" stroke-width="0.0177734" stroke-linecap="round" stroke-linejoin="round"/>
<path fill-rule="evenodd" clip-rule="evenodd" d="M5.28893 3.59814H5.3524V9.4126H5.28893V3.59814ZM5.04518 3.59814H5.10865V9.4126H5.04518V3.59814Z" fill="#FFFF00" stroke="black" stroke-width="0.0177734" stroke-linecap="round" stroke-linejoin="round"/>
<path fill-rule="evenodd" clip-rule="evenodd" d="M8.05904 6.61455V6.39873L7.88638 6.23877L6.90376 5.97725L5.48697 5.83252L3.7858 5.91885L2.56958 6.2083L2.32583 6.39111V6.60186L2.94537 6.32256L4.41802 6.09404H5.83482L6.87583 6.2083L7.59693 6.3835L8.05904 6.61455Z" fill="#FFFF00" stroke="black" stroke-width="0.0177734" stroke-linecap="round" stroke-linejoin="round"/>
<path fill-rule="evenodd" clip-rule="evenodd" d="M5.19751 6.06067C5.81829 6.05813 6.43796 6.11338 7.04849 6.22571C7.58423 6.33235 7.96255 6.46692 8.08951 6.61672V6.69289C7.93716 6.505 7.42935 6.36789 7.0358 6.28664C6.52037 6.18762 5.86783 6.12414 5.19751 6.12414C4.48658 6.12414 3.82642 6.1927 3.31861 6.29172C2.91236 6.37297 2.369 6.53293 2.30044 6.69289V6.61672C2.33853 6.505 2.74224 6.33996 3.31099 6.22571C3.93342 6.11279 4.56494 6.05754 5.19751 6.06067ZM5.19751 5.81438C5.81913 5.81198 6.43962 5.86723 7.05103 5.97942C7.58423 6.08606 7.96509 6.22063 8.09205 6.37297V6.44661C7.93716 6.25871 7.42681 6.12161 7.0358 6.04289C6.52037 5.94133 5.86783 5.87786 5.19751 5.87786C4.56908 5.87591 3.9418 5.93201 3.32369 6.04543C2.93013 6.12161 2.36392 6.28918 2.30044 6.44661V6.37043C2.33853 6.26125 2.7524 6.09114 3.31099 5.98196C3.93334 5.86818 4.56486 5.81209 5.19751 5.81438ZM5.18482 4.56262C6.24869 4.55754 7.17798 4.71243 7.60201 4.93079L7.75689 5.19739C7.38873 4.99934 6.3858 4.79114 5.18482 4.82414C4.20728 4.82922 3.16373 4.93079 2.63814 5.21008L2.82349 4.90032C3.25513 4.67688 4.27076 4.56516 5.18482 4.56262Z" fill="#FFFF00" stroke="black" stroke-width="0.0177734" stroke-linecap="round" stroke-linejoin="round"/>
<path fill-rule="evenodd" clip-rule="evenodd" d="M5.19752 4.78349C5.8069 4.78349 6.39088 4.8165 6.85807 4.90029C7.29225 4.98154 7.70865 5.10341 7.76705 5.16943L7.81276 5.25068C7.66803 5.15673 7.31002 5.05009 6.84791 4.96376C6.30225 4.87685 5.74995 4.83861 5.19752 4.84951C4.51197 4.84951 3.97877 4.88251 3.52174 4.96376C3.03932 5.05263 2.70416 5.18212 2.62037 5.24306L2.66608 5.15927C2.82604 5.07548 3.08248 4.97646 3.51158 4.90029C3.98385 4.81396 4.51959 4.78857 5.19752 4.78349ZM5.19752 4.53974C5.73378 4.5313 6.26977 4.56868 6.79967 4.65146C7.1526 4.72001 7.50045 4.82665 7.62994 4.9206L7.69596 5.02724C7.5817 4.90029 7.1526 4.78095 6.77174 4.71494C6.32994 4.63876 5.77897 4.60829 5.19752 4.60322C4.58815 4.60322 4.02447 4.6413 3.58776 4.72001C3.17135 4.80126 2.90221 4.89521 2.78795 4.96884L2.84635 4.87744C3.00377 4.79619 3.25768 4.72001 3.5776 4.65654C4.01686 4.57783 4.58561 4.53974 5.19752 4.53974ZM6.6194 7.69072C6.14994 7.60977 5.6738 7.57406 5.19752 7.58408C3.42272 7.60439 2.85143 7.94716 2.78033 8.05126L2.6483 7.83544C3.09772 7.5079 4.06256 7.32509 5.20514 7.34287C5.79674 7.35302 6.30709 7.39365 6.73873 7.4749L6.61686 7.69072" fill="#FFFF00"/>
<path d="M6.6194 7.69072C6.14994 7.60977 5.6738 7.57406 5.19752 7.58408C3.42272 7.60439 2.85143 7.94716 2.78033 8.05126L2.6483 7.83544C3.09772 7.5079 4.06256 7.32509 5.20514 7.34287C5.79674 7.35302 6.30709 7.39365 6.73873 7.4749L6.61686 7.69072M5.19752 4.78349C5.8069 4.78349 6.39088 4.8165 6.85807 4.90029C7.29225 4.98154 7.70865 5.10341 7.76705 5.16943L7.81276 5.25068C7.66803 5.15673 7.31002 5.05009 6.84791 4.96376C6.30225 4.87685 5.74995 4.83861 5.19752 4.84951C4.51197 4.84951 3.97877 4.88251 3.52174 4.96376C3.03932 5.05263 2.70416 5.18212 2.62037 5.24306L2.66608 5.15927C2.82604 5.07548 3.08248 4.97646 3.51158 4.90029C3.98385 4.81396 4.51959 4.78857 5.19752 4.78349ZM5.19752 4.53974C5.73378 4.5313 6.26977 4.56868 6.79967 4.65146C7.1526 4.72001 7.50045 4.82665 7.62994 4.9206L7.69596 5.02724C7.5817 4.90029 7.1526 4.78095 6.77174 4.71494C6.32994 4.63876 5.77897 4.60829 5.19752 4.60322C4.58815 4.60322 4.02447 4.6413 3.58776 4.72001C3.17135 4.80126 2.90221 4.89521 2.78795 4.96884L2.84635 4.87744C3.00377 4.79619 3.25768 4.72001 3.5776 4.65654C4.01686 4.57783 4.58561 4.53974 5.19752 4.53974Z" stroke="black" stroke-width="0.0177734" stroke-linecap="round" stroke-linejoin="round"/>
<path fill-rule="evenodd" clip-rule="evenodd" d="M5.18734 7.55349C5.67992 7.56111 6.16488 7.57888 6.6346 7.66775L6.59906 7.72869C6.13377 7.64835 5.66198 7.61179 5.18988 7.61951C4.5348 7.61443 3.86956 7.67537 3.29574 7.84041C3.11292 7.89119 2.81331 8.00798 2.78031 8.10447L2.7473 8.04861C2.75745 7.99275 2.94027 7.87341 3.2805 7.77947C3.94066 7.58904 4.55765 7.55857 5.1848 7.55095L5.18734 7.55349ZM5.21019 7.30466C5.73025 7.30417 6.24935 7.3492 6.76156 7.43923L6.72601 7.50271C6.22683 7.41139 5.72018 7.36719 5.21273 7.37068C4.55511 7.37068 3.85941 7.41892 3.22464 7.60173C3.02152 7.66267 2.66605 7.78962 2.65589 7.89119L2.62288 7.83279C2.6305 7.74138 2.93519 7.61951 3.21195 7.53826C3.8639 7.36773 4.53648 7.2891 5.21019 7.30466Z" fill="#FFFF00" stroke="black" stroke-width="0.0152344" stroke-linecap="round" stroke-linejoin="round"/>
<path fill-rule="evenodd" clip-rule="evenodd" d="M7.72896 7.86826L7.51568 8.19834L6.90376 7.65498L5.31431 6.58857L3.52427 5.60342L2.59244 5.28604L2.79048 4.91787L2.85904 4.88232L3.43794 5.02705L5.34224 6.00967L6.44165 6.70283L7.36333 7.36299L7.73912 7.79717L7.72896 7.86826Z" fill="#FFFF00" stroke="black" stroke-width="0.0177734" stroke-linecap="round" stroke-linejoin="round"/>
<path fill-rule="evenodd" clip-rule="evenodd" d="M2.55942 5.29436C2.72445 5.18518 3.92289 5.71838 5.17465 6.47503C6.42641 7.23421 7.62231 8.08987 7.51567 8.25237L7.48012 8.30569L7.46235 8.31839C7.46742 8.31839 7.4852 8.29299 7.46235 8.2346C7.40649 8.0594 6.56098 7.38401 5.1518 6.53342C3.7807 5.71585 2.63813 5.22327 2.52387 5.36546L2.55942 5.29436ZM7.77211 7.86389C7.87367 7.66077 6.7641 6.82288 5.38539 6.00784C3.97621 5.20803 2.95805 4.73831 2.7727 4.87796L2.73207 4.95413C2.73207 4.95667 2.73207 4.94905 2.74223 4.94143C2.77524 4.9135 2.8311 4.91604 2.85649 4.91604C3.17641 4.91858 4.09047 5.33753 5.37016 6.07385C5.93129 6.39885 7.74164 7.56174 7.73403 7.88674C7.73403 7.91467 7.73656 7.91975 7.72641 7.93499L7.77211 7.86389Z" fill="#FFFF00" stroke="black" stroke-width="0.0177734" stroke-linecap="round" stroke-linejoin="round"/>
<path d="M3.48318 6.81677C3.48361 7.04102 3.52851 7.26297 3.61529 7.46975C3.70207 7.67653 3.829 7.86404 3.98873 8.02144C4.14652 8.18166 4.33446 8.30907 4.5417 8.39633C4.74895 8.4836 4.97142 8.52898 5.19629 8.52989C5.65139 8.52985 6.08784 8.34904 6.40963 8.02722C6.5688 7.86895 6.69514 7.68081 6.78141 7.47358C6.86767 7.26635 6.91215 7.04413 6.91229 6.81966V4.53166L3.48318 4.52588V6.81677Z" fill="white" stroke="black" stroke-width="0.0202223"/>
<path d="M3.54675 6.81975C3.54736 7.03486 3.59056 7.24773 3.67386 7.44606C3.75716 7.64439 3.87891 7.82427 4.03208 7.9753C4.33965 8.28448 4.75731 8.45903 5.19342 8.46064C5.62876 8.46088 6.04642 8.28841 6.35475 7.98108C6.5074 7.8298 6.62862 7.64982 6.71142 7.4515C6.79422 7.25318 6.83696 7.04044 6.8372 6.82552V4.60107H3.55252V6.81975M6.18142 5.26841V6.68108L6.17853 6.82841C6.1795 6.95747 6.15442 7.0854 6.10478 7.20454C6.05514 7.32367 5.98196 7.43156 5.88964 7.52175C5.70593 7.7061 5.45656 7.81 5.1963 7.81064C4.92475 7.81064 4.68497 7.69508 4.50586 7.51597C4.32151 7.33226 4.21761 7.08289 4.21697 6.82263V5.26263L6.18142 5.26841Z" fill="#FF0000"/>
<path d="M3.54675 6.81975C3.54736 7.03486 3.59056 7.24773 3.67386 7.44606C3.75716 7.64439 3.87891 7.82427 4.03208 7.9753C4.33965 8.28448 4.75731 8.45903 5.19342 8.46064C5.62876 8.46088 6.04642 8.28841 6.35475 7.98108C6.5074 7.8298 6.62862 7.64982 6.71142 7.4515C6.79422 7.25318 6.83696 7.04044 6.8372 6.82552V4.60107H3.55252V6.81975M6.18142 5.26841V6.68108L6.17853 6.82841C6.1795 6.95747 6.15442 7.0854 6.10478 7.20453C6.05514 7.32367 5.98196 7.43156 5.88964 7.52175C5.70593 7.7061 5.45656 7.81 5.1963 7.81064C4.92475 7.81064 4.68497 7.69508 4.50586 7.51597C4.32151 7.33226 4.21761 7.08289 4.21697 6.82263V5.26263L6.18142 5.26841Z" stroke="black" stroke-width="0.0144445"/>
<path d="M3.76051 5.18131C3.7634 5.02242 3.87606 4.98486 3.87606 4.98486C3.87895 4.98486 4.00029 5.02531 4.00029 5.1842H3.76051" fill="#FFFF00"/>
<path d="M3.66229 4.98775L3.64207 5.16975H3.7634C3.7634 5.01953 3.87896 4.99642 3.87896 4.99642C3.88184 4.99642 3.99451 5.0282 3.9974 5.16975H4.11873L4.09562 4.98486H3.66229V4.98775ZM3.6334 5.17264H4.12451C4.13318 5.17264 4.14184 5.18131 4.14184 5.19286C4.14184 5.20731 4.13318 5.21597 4.12451 5.21597H3.6334C3.62473 5.21597 3.61607 5.20731 3.61607 5.19286C3.61607 5.18131 3.62473 5.17264 3.63629 5.17264H3.6334Z" fill="#FFFF00" stroke="black" stroke-width="0.0144445"/>
<path d="M3.81253 5.16982C3.81253 5.07449 3.87897 5.04849 3.87897 5.04849C3.87897 5.04849 3.94542 5.07738 3.94542 5.16982H3.81253ZM3.64497 4.90982H4.11586C4.12453 4.90982 4.13319 4.92138 4.13319 4.93293C4.13319 4.9416 4.12453 4.95027 4.11586 4.95027H3.64497C3.6363 4.95027 3.62764 4.9416 3.62764 4.93004C3.62764 4.92138 3.6363 4.91271 3.64497 4.91271V4.90982ZM3.65653 4.95315H4.10142C4.11008 4.95315 4.11875 4.96182 4.11875 4.97338C4.11875 4.98493 4.11008 4.9936 4.10142 4.9936H3.65364C3.64208 4.9936 3.6363 4.98493 3.6363 4.97338C3.6363 4.96182 3.64208 4.95315 3.65364 4.95315H3.65653ZM3.80097 4.64693H3.83564V4.67004H3.86164V4.64693H3.89919V4.67293H3.92519V4.64404H3.95986V4.70182C3.95986 4.71338 3.95408 4.71915 3.94542 4.71915H3.8183C3.80964 4.71915 3.80097 4.71338 3.80097 4.70471V4.64693ZM3.93386 4.72493L3.94253 4.90982H3.8183L3.82697 4.72204H3.93386" fill="#FFFF00"/>
<path d="M3.93386 4.72493L3.94253 4.90982H3.8183L3.82697 4.72204H3.93386M3.81253 5.16982C3.81253 5.07449 3.87897 5.04849 3.87897 5.04849C3.87897 5.04849 3.94542 5.07738 3.94542 5.16982H3.81253ZM3.64497 4.90982H4.11586C4.12453 4.90982 4.13319 4.92138 4.13319 4.93293C4.13319 4.9416 4.12453 4.95027 4.11586 4.95027H3.64497C3.6363 4.95027 3.62764 4.9416 3.62764 4.93004C3.62764 4.92138 3.6363 4.91271 3.64497 4.91271V4.90982ZM3.65653 4.95315H4.10142C4.11008 4.95315 4.11875 4.96182 4.11875 4.97338C4.11875 4.98493 4.11008 4.9936 4.10142 4.9936H3.65364C3.64208 4.9936 3.6363 4.98493 3.6363 4.97338C3.6363 4.96182 3.64208 4.95315 3.65364 4.95315H3.65653ZM3.80097 4.64693H3.83564V4.67004H3.86164V4.64693H3.89919V4.67293H3.92519V4.64404H3.95986V4.70182C3.95986 4.71338 3.95408 4.71915 3.94542 4.71915H3.8183C3.80964 4.71915 3.80097 4.71338 3.80097 4.70471V4.64693Z" stroke="black" stroke-width="0.0144445"/>
<path d="M3.78363 4.81152V4.90975H3.66807V4.81152H3.78363Z" fill="#FFFF00" stroke="black" stroke-width="0.0144445"/>
<path d="M4.08984 4.81152V4.90975H3.97428V4.81152H4.08984Z" fill="#FFFF00" stroke="black" stroke-width="0.0144445"/>
<path d="M3.64784 4.73633H3.6825V4.76522H3.7085V4.73633H3.74317V4.76522H3.76917V4.73633H3.80384V4.79411C3.80384 4.80566 3.79806 4.81144 3.78939 4.81144H3.66517C3.66057 4.81144 3.65616 4.80961 3.65291 4.80636C3.64966 4.80311 3.64784 4.7987 3.64784 4.79411V4.73633Z" fill="#FFFF00" stroke="black" stroke-width="0.0144445"/>
<path d="M3.95408 4.73633H3.98875V4.76522H4.01475V4.73633H4.04941V4.76522H4.07541V4.73633H4.11008V4.79411C4.11008 4.80566 4.1043 4.81144 4.09563 4.81144H3.97141C3.96681 4.81144 3.96241 4.80961 3.95916 4.80636C3.9559 4.80311 3.95408 4.7987 3.95408 4.79411V4.73633Z" fill="#FFFF00" stroke="black" stroke-width="0.0144445"/>
<path d="M3.86739 4.78253C3.86739 4.7652 3.89339 4.7652 3.89339 4.78253V4.82875H3.86739V4.78253Z" fill="black"/>
<path d="M3.71429 4.84601C3.71429 4.82867 3.7374 4.82867 3.7374 4.84601V4.88067H3.71429V4.84601Z" fill="black"/>
<path d="M4.02053 4.84601C4.02053 4.82867 4.04364 4.82867 4.04364 4.84601V4.88067H4.02053V4.84601Z" fill="black"/>
<path d="M3.7605 6.5192C3.76339 6.36031 3.87606 6.32275 3.87606 6.32275C3.87894 6.32275 4.00028 6.3632 4.00028 6.52209H3.7605" fill="#FFFF00"/>
<path d="M3.66228 6.32564L3.64206 6.50764H3.76339C3.76339 6.35742 3.87895 6.33431 3.87895 6.33431C3.88184 6.33431 3.9945 6.36609 3.99739 6.50764H4.11873L4.09561 6.32275H3.66228V6.32564ZM3.63339 6.51053H4.1245C4.13317 6.51053 4.14184 6.5192 4.14184 6.53075C4.14184 6.5452 4.13317 6.55387 4.1245 6.55387H3.63339C3.62473 6.55387 3.61606 6.5452 3.61606 6.53075C3.61606 6.5192 3.62472 6.51053 3.63628 6.51053H3.63339Z" fill="#FFFF00" stroke="black" stroke-width="0.0144445"/>
<path d="M3.81252 6.50722C3.81252 6.41189 3.87896 6.38589 3.87896 6.38589C3.87896 6.38589 3.94541 6.41478 3.94541 6.50722H3.81252ZM3.64496 6.24722H4.11585C4.12452 6.24722 4.13319 6.25878 4.13319 6.27033C4.13319 6.279 4.12452 6.28767 4.11585 6.28767H3.64496C3.6363 6.28767 3.62763 6.279 3.62763 6.26745C3.62763 6.25878 3.6363 6.25011 3.64496 6.25011V6.24722ZM3.65652 6.29056H4.10141C4.11008 6.29056 4.11874 6.29922 4.11874 6.31078C4.11874 6.32233 4.11008 6.331 4.10141 6.331H3.65363C3.64207 6.331 3.6363 6.32233 3.6363 6.31078C3.6363 6.29922 3.64207 6.29056 3.65363 6.29056H3.65652ZM3.80096 5.98433H3.83563V6.00745H3.86163V5.98433H3.89919V6.01033H3.92519V5.98145H3.95985V6.03922C3.95985 6.05078 3.95408 6.05656 3.94541 6.05656H3.8183C3.80963 6.05656 3.80096 6.05078 3.80096 6.04211V5.98433ZM3.93385 6.06233L3.94252 6.24722H3.8183L3.82696 6.05945H3.93385" fill="#FFFF00"/>
<path d="M3.93385 6.06233L3.94252 6.24722H3.8183L3.82696 6.05945H3.93385M3.81252 6.50722C3.81252 6.41189 3.87896 6.38589 3.87896 6.38589C3.87896 6.38589 3.94541 6.41478 3.94541 6.50722H3.81252ZM3.64496 6.24722H4.11585C4.12452 6.24722 4.13319 6.25878 4.13319 6.27033C4.13319 6.279 4.12452 6.28767 4.11585 6.28767H3.64496C3.6363 6.28767 3.62763 6.279 3.62763 6.26745C3.62763 6.25878 3.6363 6.25011 3.64496 6.25011V6.24722ZM3.65652 6.29056H4.10141C4.11008 6.29056 4.11874 6.29922 4.11874 6.31078C4.11874 6.32233 4.11008 6.331 4.10141 6.331H3.65363C3.64207 6.331 3.6363 6.32233 3.6363 6.31078C3.6363 6.29922 3.64207 6.29056 3.65363 6.29056H3.65652ZM3.80096 5.98433H3.83563V6.00745H3.86163V5.98433H3.89919V6.01033H3.92519V5.98145H3.95985V6.03922C3.95985 6.05078 3.95408 6.05656 3.94541 6.05656H3.8183C3.80963 6.05656 3.80096 6.05078 3.80096 6.04211V5.98433Z" stroke="black" stroke-width="0.0144445"/>
<path d="M3.78362 6.14893V6.24715H3.66806V6.14893H3.78362Z" fill="#FFFF00" stroke="black" stroke-width="0.0144445"/>
<path d="M4.08983 6.14893V6.24715H3.97427V6.14893H4.08983Z" fill="#FFFF00" stroke="black" stroke-width="0.0144445"/>
<path d="M3.64783 6.07373H3.6825V6.10262H3.7085V6.07373H3.74316V6.10262H3.76916V6.07373H3.80383V6.13151C3.80383 6.14306 3.79805 6.14884 3.78938 6.14884H3.66516C3.66057 6.14884 3.65616 6.14702 3.65291 6.14377C3.64966 6.14051 3.64783 6.13611 3.64783 6.13151V6.07373Z" fill="#FFFF00" stroke="black" stroke-width="0.0144445"/>
<path d="M3.95407 6.07373H3.98874V6.10262H4.01474V6.07373H4.0494V6.10262H4.0754V6.07373H4.11007V6.13151C4.11007 6.14306 4.10429 6.14884 4.09563 6.14884H3.9714C3.96681 6.14884 3.9624 6.14702 3.95915 6.14377C3.9559 6.14051 3.95407 6.13611 3.95407 6.13151V6.07373Z" fill="#FFFF00" stroke="black" stroke-width="0.0144445"/>
<path d="M3.86739 6.12042C3.86739 6.10309 3.89339 6.10309 3.89339 6.12042V6.16664H3.86739V6.12042Z" fill="black"/>
<path d="M3.71428 6.1839C3.71428 6.16657 3.73739 6.16657 3.73739 6.1839V6.21857H3.71428V6.1839Z" fill="black"/>
<path d="M4.02052 6.1839C4.02052 6.16657 4.04363 6.16657 4.04363 6.1839V6.21857H4.02052V6.1839Z" fill="black"/>
<path d="M4.28185 7.91332C4.17114 7.79932 4.22388 7.69291 4.22388 7.69291C4.22592 7.69086 4.34011 7.63326 4.45286 7.74522L4.2839 7.91536" fill="#FFFF00"/>
<path d="M4.07532 7.84668L4.19021 7.98927L4.27571 7.90318C4.16911 7.79732 4.23414 7.69904 4.23414 7.69904C4.23617 7.697 4.33811 7.63944 4.44059 7.73714L4.52609 7.65104L4.37861 7.53716L4.07327 7.84464L4.07532 7.84668ZM4.18615 7.99746L4.53221 7.64898C4.53832 7.64283 4.55057 7.64279 4.55877 7.65093C4.56902 7.66111 4.56906 7.67336 4.56296 7.67951L4.2169 8.02799C4.2108 8.03414 4.19854 8.03418 4.18829 8.02401C4.18009 8.01586 4.18005 8.00361 4.18819 7.99541L4.18615 7.99746Z" fill="#FFFF00" stroke="black" stroke-width="0.0144445"/>
<path d="M4.31028 7.8682C4.24264 7.80102 4.27101 7.73555 4.27101 7.73555C4.27101 7.73555 4.33833 7.70876 4.40392 7.7739L4.31028 7.8682ZM4.00773 7.80388L4.33953 7.46975C4.34564 7.4636 4.35995 7.4656 4.36815 7.47374C4.3743 7.47985 4.37434 7.4921 4.36823 7.49825L4.03643 7.83238C4.03032 7.83853 4.01806 7.83857 4.00986 7.83043C4.00371 7.82433 4.00367 7.81207 4.00978 7.80592L4.00773 7.80388ZM4.04662 7.82622L4.3601 7.51054C4.36621 7.50439 4.37847 7.50434 4.38667 7.51249C4.39487 7.52063 4.39491 7.53289 4.3888 7.53904L4.07328 7.85677C4.06514 7.86497 4.05492 7.86296 4.04672 7.85482C4.03852 7.84667 4.03644 7.83647 4.04458 7.82827L4.04662 7.82622ZM3.93111 7.50795L3.95554 7.48335L3.97194 7.49964L3.99026 7.48119L3.97386 7.4649L4.00032 7.43825L4.01877 7.45657L4.03709 7.43813L4.01659 7.41777L4.04102 7.39317L4.08202 7.43388C4.09022 7.44203 4.09025 7.4502 4.08414 7.45635L3.99457 7.54654C3.98847 7.55269 3.97826 7.55477 3.97211 7.54866L3.93111 7.50795ZM4.0801 7.46862L4.2174 7.59275L4.12987 7.68089L4.00273 7.54243L4.07805 7.46658" fill="#FFFF00"/>
<path d="M4.0801 7.46862L4.2174 7.59275L4.12987 7.68089L4.00273 7.54243L4.07805 7.46658M4.31028 7.8682C4.24264 7.80102 4.27101 7.73555 4.27101 7.73555C4.27101 7.73555 4.33833 7.70876 4.40392 7.7739L4.31028 7.8682ZM4.00773 7.80388L4.33953 7.46975C4.34564 7.4636 4.35995 7.4656 4.36815 7.47374C4.3743 7.47985 4.37434 7.4921 4.36823 7.49825L4.03643 7.83238C4.03032 7.83853 4.01806 7.83857 4.00986 7.83043C4.00371 7.82433 4.00367 7.81207 4.00978 7.80592L4.00773 7.80388ZM4.04662 7.82622L4.3601 7.51054C4.36621 7.50439 4.37847 7.50434 4.38667 7.51249C4.39487 7.52063 4.39491 7.53289 4.3888 7.53904L4.07328 7.85677C4.06514 7.86497 4.05492 7.86296 4.04672 7.85482C4.03852 7.84667 4.03644 7.83647 4.04458 7.82827L4.04662 7.82622ZM3.93111 7.50795L3.95554 7.48335L3.97194 7.49964L3.99026 7.48119L3.97386 7.4649L4.00032 7.43825L4.01877 7.45657L4.03709 7.43813L4.01659 7.41777L4.04102 7.39317L4.08202 7.43388C4.09022 7.44203 4.09025 7.4502 4.08414 7.45635L3.99457 7.54654C3.98847 7.55269 3.97826 7.55477 3.97211 7.54866L3.93111 7.50795Z" stroke="black" stroke-width="0.0144445"/>
<path d="M4.03577 7.63627L4.10547 7.70548L4.02404 7.78747L3.95435 7.71826L4.03577 7.63627Z" fill="#FFFF00" stroke="black" stroke-width="0.0144445"/>
<path d="M4.25152 7.41898L4.32122 7.48819L4.23979 7.57019L4.1701 7.50098L4.25152 7.41898Z" fill="#FFFF00" stroke="black" stroke-width="0.0144445"/>
<path d="M3.8868 7.67969L3.91123 7.65509L3.93173 7.67545L3.95005 7.657L3.92955 7.63664L3.95398 7.61204L3.97448 7.6324L3.9928 7.61395L3.9723 7.59359L3.99673 7.56899L4.03772 7.60971C4.04592 7.61785 4.04595 7.62602 4.03984 7.63217L3.95231 7.72031C3.94907 7.72358 3.94467 7.72542 3.94007 7.72543C3.93548 7.72545 3.93106 7.72364 3.9278 7.7204L3.8868 7.67969Z" fill="#FFFF00" stroke="black" stroke-width="0.0144445"/>
<path d="M4.10256 7.46289L4.12698 7.43829L4.14748 7.45865L4.1658 7.4402L4.1453 7.41984L4.16973 7.39524L4.19023 7.4156L4.20855 7.39715L4.18805 7.3768L4.21248 7.3522L4.25348 7.39291C4.26168 7.40105 4.2617 7.40922 4.2556 7.41537L4.16807 7.50352C4.16483 7.50678 4.16043 7.50862 4.15583 7.50864C4.15123 7.50865 4.14682 7.50684 4.14355 7.5036L4.10256 7.46289Z" fill="#FFFF00" stroke="black" stroke-width="0.0144445"/>
<path d="M4.07429 7.55652C4.06199 7.54431 4.08031 7.52586 4.09261 7.53807L4.12541 7.57064L4.10709 7.58909L4.07429 7.55652Z" fill="black"/>
<path d="M4.01151 7.70984C3.99921 7.69763 4.01549 7.68123 4.02779 7.69345L4.05239 7.71787L4.03611 7.73427L4.01151 7.70984Z" fill="black"/>
<path d="M4.22726 7.49256C4.21496 7.48035 4.23125 7.46395 4.24355 7.47616L4.26814 7.50059L4.25186 7.51699L4.22726 7.49256Z" fill="black"/>
<path d="M5.08074 5.18131C5.08363 5.02242 5.1963 4.98486 5.1963 4.98486C5.19919 4.98486 5.32052 5.02531 5.32052 5.1842H5.08074" fill="#FFFF00"/>
<path d="M4.98249 4.98775L4.96227 5.16975H5.0836C5.0836 5.01953 5.19916 4.99642 5.19916 4.99642C5.20205 4.99642 5.31471 5.0282 5.3176 5.16975H5.43894L5.41583 4.98486H4.98249V4.98775ZM4.9536 5.17264H5.44472C5.45338 5.17264 5.46205 5.18131 5.46205 5.19286C5.46205 5.20731 5.45338 5.21597 5.44472 5.21597H4.9536C4.94494 5.21597 4.93627 5.20731 4.93627 5.19286C4.93627 5.18131 4.94494 5.17264 4.95649 5.17264H4.9536Z" fill="#FFFF00" stroke="black" stroke-width="0.0144445"/>
<path d="M5.13273 5.16982C5.13273 5.07449 5.19917 5.04849 5.19917 5.04849C5.19917 5.04849 5.26562 5.07738 5.26562 5.16982H5.13273ZM4.96517 4.90982H5.43606C5.44473 4.90982 5.4534 4.92138 5.4534 4.93293C5.4534 4.9416 5.44473 4.95027 5.43606 4.95027H4.96517C4.95651 4.95027 4.94784 4.9416 4.94784 4.93004C4.94784 4.92138 4.95651 4.91271 4.96517 4.91271V4.90982ZM4.97673 4.95315H5.42162C5.43029 4.95315 5.43895 4.96182 5.43895 4.97338C5.43895 4.98493 5.43029 4.9936 5.42162 4.9936H4.97384C4.96228 4.9936 4.95651 4.98493 4.95651 4.97338C4.95651 4.96182 4.96228 4.95315 4.97384 4.95315H4.97673ZM5.12117 4.64693H5.15584V4.67004H5.18184V4.64693H5.2194V4.67293H5.2454V4.64404H5.28006V4.70182C5.28006 4.71338 5.27428 4.71915 5.26562 4.71915H5.13851C5.12984 4.71915 5.12117 4.71338 5.12117 4.70471V4.64693ZM5.25406 4.72493L5.26273 4.90982H5.13851L5.14717 4.72204H5.25406" fill="#FFFF00"/>
<path d="M5.25406 4.72493L5.26273 4.90982H5.13851L5.14717 4.72204H5.25406M5.13273 5.16982C5.13273 5.07449 5.19917 5.04849 5.19917 5.04849C5.19917 5.04849 5.26562 5.07738 5.26562 5.16982H5.13273ZM4.96517 4.90982H5.43606C5.44473 4.90982 5.4534 4.92138 5.4534 4.93293C5.4534 4.9416 5.44473 4.95027 5.43606 4.95027H4.96517C4.95651 4.95027 4.94784 4.9416 4.94784 4.93004C4.94784 4.92138 4.95651 4.91271 4.96517 4.91271V4.90982ZM4.97673 4.95315H5.42162C5.43028 4.95315 5.43895 4.96182 5.43895 4.97338C5.43895 4.98493 5.43028 4.9936 5.42162 4.9936H4.97384C4.96228 4.9936 4.95651 4.98493 4.95651 4.97338C4.95651 4.96182 4.96228 4.95315 4.97384 4.95315H4.97673ZM5.12117 4.64693H5.15584V4.67004H5.18184V4.64693H5.2194V4.67293H5.2454V4.64404H5.28006V4.70182C5.28006 4.71338 5.27428 4.71915 5.26562 4.71915H5.13851C5.12984 4.71915 5.12117 4.71338 5.12117 4.70471V4.64693Z" stroke="black" stroke-width="0.0144445"/>
<path d="M5.10383 4.81152V4.90975H4.98827V4.81152H5.10383Z" fill="#FFFF00" stroke="black" stroke-width="0.0144445"/>
<path d="M5.41007 4.81152V4.90975H5.29452V4.81152H5.41007Z" fill="#FFFF00" stroke="black" stroke-width="0.0144445"/>
<path d="M4.96807 4.73633H5.00274V4.76522H5.02874V4.73633H5.06341V4.76522H5.08941V4.73633H5.12407V4.79411C5.12407 4.80566 5.1183 4.81144 5.10963 4.81144H4.98541C4.98081 4.81144 4.9764 4.80961 4.97315 4.80636C4.9699 4.80311 4.96807 4.7987 4.96807 4.79411V4.73633Z" fill="#FFFF00" stroke="black" stroke-width="0.0144445"/>
<path d="M5.27428 4.73633H5.30895V4.76522H5.33495V4.73633H5.36962V4.76522H5.39562V4.73633H5.43028V4.79411C5.43028 4.80566 5.4245 4.81144 5.41584 4.81144H5.29162C5.28702 4.81144 5.28261 4.80961 5.27936 4.80636C5.27611 4.80311 5.27428 4.7987 5.27428 4.79411V4.73633Z" fill="#FFFF00" stroke="black" stroke-width="0.0144445"/>
<path d="M5.18763 4.78253C5.18763 4.7652 5.21363 4.7652 5.21363 4.78253V4.82875H5.18763V4.78253Z" fill="black"/>
<path d="M5.03449 4.84601C5.03449 4.82867 5.0576 4.82867 5.0576 4.84601V4.88067H5.03449V4.84601Z" fill="black"/>
<path d="M5.34073 4.84601C5.34073 4.82867 5.36385 4.82867 5.36385 4.84601V4.88067H5.34073V4.84601Z" fill="black"/>
<path d="M6.63204 5.18131C6.62915 5.02242 6.51648 4.98486 6.51648 4.98486C6.51359 4.98486 6.39226 5.02531 6.39226 5.1842H6.63204" fill="#FFFF00"/>
<path d="M6.73026 4.98775L6.75048 5.16975H6.62915C6.62915 5.01953 6.51359 4.99642 6.51359 4.99642C6.5107 4.99642 6.39804 5.0282 6.39515 5.16975H6.27381L6.29692 4.98486H6.73026V4.98775ZM6.75915 5.17264H6.26804C6.25937 5.17264 6.2507 5.18131 6.2507 5.19286C6.2507 5.20731 6.25937 5.21597 6.26804 5.21597H6.75915C6.76781 5.21597 6.77648 5.20731 6.77648 5.19286C6.77648 5.18131 6.76782 5.17264 6.75626 5.17264H6.75915Z" fill="#FFFF00" stroke="black" stroke-width="0.0144445"/>
<path d="M6.58005 5.16982C6.58005 5.07449 6.51361 5.04849 6.51361 5.04849C6.51361 5.04849 6.44716 5.07738 6.44716 5.16982H6.58005ZM6.74761 4.90982H6.27672C6.26805 4.90982 6.25939 4.92138 6.25939 4.93293C6.25939 4.9416 6.26805 4.95027 6.27672 4.95027H6.74761C6.75628 4.95027 6.76494 4.9416 6.76494 4.93004C6.76494 4.92138 6.75628 4.91271 6.74761 4.91271V4.90982ZM6.73605 4.95315H6.29116C6.2825 4.95315 6.27383 4.96182 6.27383 4.97338C6.27383 4.98493 6.2825 4.9936 6.29116 4.9936H6.73894C6.7505 4.9936 6.75628 4.98493 6.75628 4.97338C6.75628 4.96182 6.7505 4.95315 6.73894 4.95315H6.73605ZM6.59161 4.64693H6.55694V4.67004H6.53094V4.64693H6.49339V4.67293H6.46739V4.64404H6.43272V4.70182C6.43272 4.71338 6.4385 4.71915 6.44716 4.71915H6.57428C6.58294 4.71915 6.59161 4.71338 6.59161 4.70471V4.64693ZM6.45872 4.72493L6.45005 4.90982H6.57428L6.56561 4.72204H6.45872" fill="#FFFF00"/>
<path d="M6.45872 4.72493L6.45005 4.90982H6.57428L6.56561 4.72204H6.45872M6.58005 5.16982C6.58005 5.07449 6.51361 5.04849 6.51361 5.04849C6.51361 5.04849 6.44716 5.07738 6.44716 5.16982H6.58005ZM6.74761 4.90982H6.27672C6.26805 4.90982 6.25939 4.92138 6.25939 4.93293C6.25939 4.9416 6.26805 4.95027 6.27672 4.95027H6.74761C6.75628 4.95027 6.76494 4.9416 6.76494 4.93004C6.76494 4.92138 6.75628 4.91271 6.74761 4.91271V4.90982ZM6.73605 4.95315H6.29116C6.2825 4.95315 6.27383 4.96182 6.27383 4.97338C6.27383 4.98493 6.2825 4.9936 6.29116 4.9936H6.73894C6.7505 4.9936 6.75628 4.98493 6.75628 4.97338C6.75628 4.96182 6.7505 4.95315 6.73894 4.95315H6.73605ZM6.59161 4.64693H6.55694V4.67004H6.53094V4.64693H6.49339V4.67293H6.46739V4.64404H6.43272V4.70182C6.43272 4.71338 6.4385 4.71915 6.44716 4.71915H6.57428C6.58294 4.71915 6.59161 4.71338 6.59161 4.70471V4.64693Z" stroke="black" stroke-width="0.0144445"/>
<path d="M6.60895 4.81152V4.90975H6.72451V4.81152H6.60895Z" fill="#FFFF00" stroke="black" stroke-width="0.0144445"/>
<path d="M6.30271 4.81152V4.90975H6.41827V4.81152H6.30271Z" fill="#FFFF00" stroke="black" stroke-width="0.0144445"/>
<path d="M6.74471 4.73633H6.71004V4.76522H6.68404V4.73633H6.64938V4.76522H6.62338V4.73633H6.58871V4.79411C6.58871 4.80566 6.59449 4.81144 6.60315 4.81144H6.72738C6.73197 4.81144 6.73638 4.80961 6.73963 4.80636C6.74288 4.80311 6.74471 4.7987 6.74471 4.79411V4.73633Z" fill="#FFFF00" stroke="black" stroke-width="0.0144445"/>
<path d="M6.4385 4.73633H6.40383V4.76522H6.37783V4.73633H6.34317V4.76522H6.31717V4.73633H6.2825V4.79411C6.2825 4.80566 6.28828 4.81144 6.29694 4.81144H6.42117C6.42576 4.81144 6.43017 4.80961 6.43342 4.80636C6.43667 4.80311 6.4385 4.7987 6.4385 4.79411V4.73633Z" fill="#FFFF00" stroke="black" stroke-width="0.0144445"/>
<path d="M6.52515 4.78253C6.52515 4.7652 6.49915 4.7652 6.49915 4.78253V4.82875H6.52515V4.78253Z" fill="black"/>
<path d="M6.67826 4.84601C6.67826 4.82867 6.65515 4.82867 6.65515 4.84601V4.88067H6.67826V4.84601Z" fill="black"/>
<path d="M6.37205 4.84601C6.37205 4.82867 6.34894 4.82867 6.34894 4.84601V4.88067H6.37205V4.84601Z" fill="black"/>
<path d="M6.632 6.5192C6.62911 6.36031 6.51645 6.32275 6.51645 6.32275C6.51356 6.32275 6.39223 6.3632 6.39223 6.52209H6.632" fill="#FFFF00"/>
<path d="M6.73022 6.32564L6.75044 6.50764H6.62911C6.62911 6.35742 6.51355 6.33431 6.51355 6.33431C6.51067 6.33431 6.398 6.36609 6.39511 6.50764H6.27378L6.29689 6.32275H6.73022V6.32564ZM6.75911 6.51053H6.268C6.25933 6.51053 6.25066 6.5192 6.25066 6.53075C6.25066 6.5452 6.25933 6.55387 6.268 6.55387H6.75911C6.76778 6.55387 6.77644 6.5452 6.77644 6.53075C6.77644 6.5192 6.76778 6.51053 6.75622 6.51053H6.75911Z" fill="#FFFF00" stroke="black" stroke-width="0.0144445"/>
<path d="M6.58002 6.50722C6.58002 6.41189 6.51357 6.38589 6.51357 6.38589C6.51357 6.38589 6.44713 6.41478 6.44713 6.50722H6.58002ZM6.74757 6.24722H6.27668C6.26802 6.24722 6.25935 6.25878 6.25935 6.27033C6.25935 6.279 6.26802 6.28767 6.27668 6.28767H6.74757C6.75624 6.28767 6.76491 6.279 6.76491 6.26745C6.76491 6.25878 6.75624 6.25011 6.74757 6.25011V6.24722ZM6.73602 6.29056H6.29113C6.28246 6.29056 6.2738 6.29922 6.2738 6.31078C6.2738 6.32233 6.28246 6.331 6.29113 6.331H6.73891C6.75046 6.331 6.75624 6.32233 6.75624 6.31078C6.75624 6.29922 6.75046 6.29056 6.73891 6.29056H6.73602ZM6.59157 5.98433H6.55691V6.00745H6.53091V5.98433H6.49335V6.01033H6.46735V5.98145H6.43268V6.03922C6.43268 6.05078 6.43846 6.05656 6.44713 6.05656H6.57424C6.58291 6.05656 6.59157 6.05078 6.59157 6.04211V5.98433ZM6.45869 6.06233L6.45002 6.24722H6.57424L6.56557 6.05945H6.45869" fill="#FFFF00"/>
<path d="M6.45869 6.06233L6.45002 6.24722H6.57424L6.56557 6.05945H6.45869M6.58002 6.50722C6.58002 6.41189 6.51357 6.38589 6.51357 6.38589C6.51357 6.38589 6.44713 6.41478 6.44713 6.50722H6.58002ZM6.74757 6.24722H6.27668C6.26802 6.24722 6.25935 6.25878 6.25935 6.27033C6.25935 6.279 6.26802 6.28767 6.27668 6.28767H6.74757C6.75624 6.28767 6.76491 6.279 6.76491 6.26745C6.76491 6.25878 6.75624 6.25011 6.74757 6.25011V6.24722ZM6.73602 6.29056H6.29113C6.28246 6.29056 6.2738 6.29922 6.2738 6.31078C6.2738 6.32233 6.28246 6.331 6.29113 6.331H6.73891C6.75046 6.331 6.75624 6.32233 6.75624 6.31078C6.75624 6.29922 6.75046 6.29056 6.73891 6.29056H6.73602ZM6.59157 5.98433H6.55691V6.00745H6.53091V5.98433H6.49335V6.01033H6.46735V5.98145H6.43268V6.03922C6.43268 6.05078 6.43846 6.05656 6.44713 6.05656H6.57424C6.58291 6.05656 6.59157 6.05078 6.59157 6.04211V5.98433Z" stroke="black" stroke-width="0.0144445"/>
<path d="M6.60892 6.14893V6.24715H6.72447V6.14893H6.60892Z" fill="#FFFF00" stroke="black" stroke-width="0.0144445"/>
<path d="M6.30268 6.14893V6.24715H6.41823V6.14893H6.30268Z" fill="#FFFF00" stroke="black" stroke-width="0.0144445"/>
<path d="M6.74467 6.07373H6.71001V6.10262H6.68401V6.07373H6.64934V6.10262H6.62334V6.07373H6.58867V6.13151C6.58867 6.14306 6.59445 6.14884 6.60312 6.14884H6.72734C6.73194 6.14884 6.73635 6.14702 6.7396 6.14377C6.74285 6.14051 6.74467 6.13611 6.74467 6.13151V6.07373Z" fill="#FFFF00" stroke="black" stroke-width="0.0144445"/>
<path d="M6.43847 6.07373H6.4038V6.10262H6.3778V6.07373H6.34313V6.10262H6.31713V6.07373H6.28246V6.13151C6.28246 6.14306 6.28824 6.14884 6.29691 6.14884H6.42113C6.42573 6.14884 6.43014 6.14702 6.43339 6.14377C6.43664 6.14051 6.43847 6.13611 6.43847 6.13151V6.07373Z" fill="#FFFF00" stroke="black" stroke-width="0.0144445"/>
<path d="M6.52512 6.12042C6.52512 6.10309 6.49912 6.10309 6.49912 6.12042V6.16664H6.52512V6.12042Z" fill="black"/>
<path d="M6.67822 6.1839C6.67822 6.16657 6.65511 6.16657 6.65511 6.1839V6.21857H6.67822V6.1839Z" fill="black"/>
<path d="M6.37201 6.1839C6.37201 6.16657 6.3489 6.16657 6.3489 6.1839V6.21857H6.37201V6.1839Z" fill="black"/>
<path d="M6.11069 7.91332C6.2214 7.79932 6.16866 7.69291 6.16866 7.69291C6.16662 7.69086 6.05243 7.63326 5.93968 7.74522L6.10864 7.91536" fill="#FFFF00"/>
<path d="M6.31725 7.84668L6.20236 7.98927L6.11686 7.90318C6.22346 7.79732 6.15843 7.69904 6.15843 7.69904C6.1564 7.697 6.05446 7.63944 5.95198 7.73714L5.86648 7.65104L6.01396 7.53716L6.3193 7.84464L6.31725 7.84668ZM6.20642 7.99746L5.86036 7.64898C5.85425 7.64283 5.842 7.64279 5.8338 7.65093C5.82355 7.66111 5.82351 7.67336 5.82961 7.67951L6.17567 8.02799C6.18177 8.03414 6.19403 8.03418 6.20428 8.02401C6.21248 8.01586 6.21252 8.00361 6.20438 7.99541L6.20642 7.99746Z" fill="#FFFF00" stroke="black" stroke-width="0.0144445"/>
<path d="M6.08226 7.8682C6.1499 7.80102 6.12153 7.73555 6.12153 7.73555C6.12153 7.73555 6.05421 7.70876 5.98862 7.7739L6.08226 7.8682ZM6.38481 7.80388L6.05301 7.46975C6.0469 7.4636 6.03259 7.4656 6.02439 7.47374C6.01824 7.47985 6.0182 7.4921 6.02431 7.49825L6.35611 7.83238C6.36222 7.83853 6.37448 7.83857 6.38268 7.83043C6.38883 7.82433 6.38887 7.81207 6.38276 7.80592L6.38481 7.80388ZM6.34592 7.82622L6.03244 7.51054C6.02633 7.50439 6.01407 7.50434 6.00587 7.51249C5.99767 7.52063 5.99763 7.53289 6.00374 7.53904L6.31926 7.85677C6.3274 7.86497 6.33762 7.86296 6.34582 7.85482C6.35402 7.84667 6.3561 7.83647 6.34796 7.82827L6.34592 7.82622ZM6.46143 7.50795L6.437 7.48335L6.4206 7.49964L6.40228 7.48119L6.41868 7.4649L6.39222 7.43825L6.37377 7.45657L6.35545 7.43813L6.37595 7.41777L6.35152 7.39317L6.31052 7.43388C6.30232 7.44203 6.30229 7.4502 6.3084 7.45635L6.39797 7.54654C6.40407 7.55269 6.41428 7.55477 6.42043 7.54866L6.46143 7.50795ZM6.31244 7.46862L6.17514 7.59275L6.26267 7.68089L6.38981 7.54243L6.31449 7.46658" fill="#FFFF00"/>
<path d="M6.31244 7.46862L6.17514 7.59275L6.26267 7.68089L6.38981 7.54243L6.31449 7.46658M6.08226 7.8682C6.1499 7.80102 6.12153 7.73555 6.12153 7.73555C6.12153 7.73555 6.05421 7.70876 5.98862 7.7739L6.08226 7.8682ZM6.38481 7.80388L6.05301 7.46975C6.0469 7.4636 6.03259 7.4656 6.02439 7.47374C6.01824 7.47985 6.0182 7.4921 6.02431 7.49825L6.35611 7.83238C6.36222 7.83853 6.37448 7.83857 6.38268 7.83043C6.38883 7.82433 6.38887 7.81207 6.38276 7.80592L6.38481 7.80388ZM6.34592 7.82622L6.03244 7.51054C6.02633 7.50439 6.01407 7.50434 6.00587 7.51249C5.99767 7.52063 5.99763 7.53289 6.00374 7.53904L6.31926 7.85677C6.3274 7.86497 6.33762 7.86296 6.34582 7.85482C6.35402 7.84667 6.3561 7.83647 6.34796 7.82827L6.34592 7.82622ZM6.46143 7.50795L6.437 7.48335L6.4206 7.49964L6.40228 7.48119L6.41868 7.4649L6.39222 7.43825L6.37377 7.45657L6.35545 7.43813L6.37595 7.41777L6.35152 7.39317L6.31052 7.43388C6.30232 7.44203 6.30229 7.4502 6.3084 7.45635L6.39797 7.54654C6.40407 7.55269 6.41428 7.55477 6.42043 7.54866L6.46143 7.50795Z" stroke="black" stroke-width="0.0144445"/>
<path d="M6.3568 7.63627L6.28711 7.70548L6.36853 7.78747L6.43823 7.71826L6.3568 7.63627Z" fill="#FFFF00" stroke="black" stroke-width="0.0144445"/>
<path d="M6.14101 7.41898L6.07132 7.48819L6.15274 7.57019L6.22244 7.50098L6.14101 7.41898Z" fill="#FFFF00" stroke="black" stroke-width="0.0144445"/>
<path d="M6.50577 7.67969L6.48134 7.65509L6.46085 7.67545L6.44253 7.657L6.46302 7.63664L6.4386 7.61204L6.4181 7.6324L6.39978 7.61395L6.42028 7.59359L6.39585 7.56899L6.35485 7.60971C6.34665 7.61785 6.34662 7.62602 6.35273 7.63217L6.44026 7.72031C6.4435 7.72358 6.4479 7.72542 6.4525 7.72543C6.4571 7.72545 6.46151 7.72364 6.46477 7.7204L6.50577 7.67969Z" fill="#FFFF00" stroke="black" stroke-width="0.0144445"/>
<path d="M6.28998 7.46289L6.26555 7.43829L6.24506 7.45865L6.22674 7.4402L6.24723 7.41984L6.22281 7.39524L6.20231 7.4156L6.18399 7.39715L6.20449 7.3768L6.18006 7.3522L6.13906 7.39291C6.13086 7.40105 6.13083 7.40922 6.13694 7.41537L6.22447 7.50352C6.22771 7.50678 6.23211 7.50862 6.23671 7.50864C6.24131 7.50865 6.24572 7.50684 6.24898 7.5036L6.28998 7.46289Z" fill="#FFFF00" stroke="black" stroke-width="0.0144445"/>
<path d="M6.31828 7.55652C6.33058 7.54431 6.31226 7.52586 6.29996 7.53807L6.26716 7.57064L6.28548 7.58909L6.31828 7.55652Z" fill="black"/>
<path d="M6.38106 7.70984C6.39336 7.69763 6.37708 7.68123 6.36478 7.69345L6.34018 7.71787L6.35647 7.73427L6.38106 7.70984Z" fill="black"/>
<path d="M6.16528 7.49256C6.17758 7.48035 6.16129 7.46395 6.14899 7.47616L6.1244 7.50059L6.14068 7.51699L6.16528 7.49256Z" fill="black"/>
<path d="M4.98542 6.56835C4.9849 6.62932 5.00763 6.6882 5.04898 6.73302C5.06827 6.75459 5.09186 6.7719 5.11822 6.78384C5.14458 6.79577 5.17315 6.80208 5.20209 6.80235C5.26276 6.80235 5.31765 6.77346 5.3552 6.73302C5.39655 6.6882 5.41928 6.62932 5.41876 6.56835V6.25635H4.98542V6.56835Z" fill="#003399"/>
<path d="M5.08658 6.41772C5.11051 6.41772 5.12991 6.39832 5.12991 6.37439C5.12991 6.35046 5.11051 6.33105 5.08658 6.33105C5.06265 6.33105 5.04325 6.35046 5.04325 6.37439C5.04325 6.39832 5.06265 6.41772 5.08658 6.41772Z" fill="white"/>
<path d="M5.32634 6.41772C5.35027 6.41772 5.36967 6.39832 5.36967 6.37439C5.36967 6.35046 5.35027 6.33105 5.32634 6.33105C5.30241 6.33105 5.283 6.35046 5.283 6.37439C5.283 6.39832 5.30241 6.41772 5.32634 6.41772Z" fill="white"/>
<path d="M5.205 6.53393C5.22894 6.53393 5.24834 6.51453 5.24834 6.4906C5.24834 6.46667 5.22894 6.44727 5.205 6.44727C5.18107 6.44727 5.16167 6.46667 5.16167 6.4906C5.16167 6.51453 5.18107 6.53393 5.205 6.53393Z" fill="white"/>
<path d="M5.08658 6.65503C5.11051 6.65503 5.12991 6.63563 5.12991 6.61169C5.12991 6.58776 5.11051 6.56836 5.08658 6.56836C5.06265 6.56836 5.04325 6.58776 5.04325 6.61169C5.04325 6.63563 5.06265 6.65503 5.08658 6.65503Z" fill="white"/>
<path d="M5.32634 6.65503C5.35027 6.65503 5.36967 6.63563 5.36967 6.61169C5.36967 6.58776 5.35027 6.56836 5.32634 6.56836C5.30241 6.56836 5.283 6.58776 5.283 6.61169C5.283 6.63563 5.30241 6.65503 5.32634 6.65503Z" fill="white"/>
<path d="M4.98542 5.81688C4.9849 5.87786 5.00763 5.93674 5.04898 5.98155C5.06827 6.00312 5.09186 6.02043 5.11822 6.03237C5.14458 6.04431 5.17315 6.05062 5.20209 6.05088C5.26276 6.05088 5.31765 6.02199 5.3552 5.98155C5.39655 5.93674 5.41928 5.87786 5.41876 5.81688V5.50488H4.98542V5.81688Z" fill="#003399"/>
<path d="M5.08658 5.66674C5.11051 5.66674 5.12991 5.64734 5.12991 5.62341C5.12991 5.59948 5.11051 5.58008 5.08658 5.58008C5.06265 5.58008 5.04325 5.59948 5.04325 5.62341C5.04325 5.64734 5.06265 5.66674 5.08658 5.66674Z" fill="white"/>
<path d="M5.32634 5.66674C5.35027 5.66674 5.36967 5.64734 5.36967 5.62341C5.36967 5.59948 5.35027 5.58008 5.32634 5.58008C5.30241 5.58008 5.283 5.59948 5.283 5.62341C5.283 5.64734 5.30241 5.66674 5.32634 5.66674Z" fill="white"/>
<path d="M5.205 5.78247C5.22894 5.78247 5.24834 5.76307 5.24834 5.73913C5.24834 5.7152 5.22894 5.6958 5.205 5.6958C5.18107 5.6958 5.16167 5.7152 5.16167 5.73913C5.16167 5.76307 5.18107 5.78247 5.205 5.78247Z" fill="white"/>
<path d="M5.08658 5.90356C5.11051 5.90356 5.12991 5.88416 5.12991 5.86023C5.12991 5.8363 5.11051 5.81689 5.08658 5.81689C5.06265 5.81689 5.04325 5.8363 5.04325 5.86023C5.04325 5.88416 5.06265 5.90356 5.08658 5.90356Z" fill="white"/>
<path d="M5.32634 5.90356C5.35027 5.90356 5.36967 5.88416 5.36967 5.86023C5.36967 5.8363 5.35027 5.81689 5.32634 5.81689C5.30241 5.81689 5.283 5.8363 5.283 5.86023C5.283 5.88416 5.30241 5.90356 5.32634 5.90356Z" fill="white"/>
<path d="M4.38451 6.56835C4.38399 6.62932 4.40672 6.6882 4.44807 6.73302C4.46736 6.75459 4.49094 6.7719 4.51731 6.78384C4.54367 6.79577 4.57224 6.80208 4.60118 6.80235C4.66185 6.80235 4.71674 6.77346 4.75429 6.73302C4.79564 6.6882 4.81837 6.62932 4.81785 6.56835V6.25635H4.38451V6.56835Z" fill="#003399"/>
<path d="M4.48558 6.41772C4.50952 6.41772 4.52892 6.39832 4.52892 6.37439C4.52892 6.35046 4.50952 6.33105 4.48558 6.33105C4.46165 6.33105 4.44225 6.35046 4.44225 6.37439C4.44225 6.39832 4.46165 6.41772 4.48558 6.41772Z" fill="white"/>
<path d="M4.72537 6.41772C4.74931 6.41772 4.76871 6.39832 4.76871 6.37439C4.76871 6.35046 4.74931 6.33105 4.72537 6.33105C4.70144 6.33105 4.68204 6.35046 4.68204 6.37439C4.68204 6.39832 4.70144 6.41772 4.72537 6.41772Z" fill="white"/>
<path d="M4.60404 6.53393C4.62797 6.53393 4.64737 6.51453 4.64737 6.4906C4.64737 6.46667 4.62797 6.44727 4.60404 6.44727C4.58011 6.44727 4.56071 6.46667 4.56071 6.4906C4.56071 6.51453 4.58011 6.53393 4.60404 6.53393Z" fill="white"/>
<path d="M4.48558 6.65503C4.50952 6.65503 4.52892 6.63563 4.52892 6.61169C4.52892 6.58776 4.50952 6.56836 4.48558 6.56836C4.46165 6.56836 4.44225 6.58776 4.44225 6.61169C4.44225 6.63563 4.46165 6.65503 4.48558 6.65503Z" fill="white"/>
<path d="M4.72537 6.65503C4.74931 6.65503 4.76871 6.63563 4.76871 6.61169C4.76871 6.58776 4.74931 6.56836 4.72537 6.56836C4.70144 6.56836 4.68204 6.58776 4.68204 6.61169C4.68204 6.63563 4.70144 6.65503 4.72537 6.65503Z" fill="white"/>
<path d="M5.58631 6.56835C5.58579 6.62932 5.60851 6.6882 5.64987 6.73302C5.66916 6.75459 5.69274 6.7719 5.71911 6.78384C5.74547 6.79577 5.77404 6.80208 5.80298 6.80235C5.86364 6.80235 5.91853 6.77346 5.95609 6.73302C5.99744 6.6882 6.02017 6.62932 6.01964 6.56835V6.25635H5.58631V6.56835Z" fill="#003399"/>
<path d="M5.68741 6.41772C5.71135 6.41772 5.73075 6.39832 5.73075 6.37439C5.73075 6.35046 5.71135 6.33105 5.68741 6.33105C5.66348 6.33105 5.64408 6.35046 5.64408 6.37439C5.64408 6.39832 5.66348 6.41772 5.68741 6.41772Z" fill="white"/>
<path d="M5.9272 6.41772C5.95114 6.41772 5.97054 6.39832 5.97054 6.37439C5.97054 6.35046 5.95114 6.33105 5.9272 6.33105C5.90327 6.33105 5.88387 6.35046 5.88387 6.37439C5.88387 6.39832 5.90327 6.41772 5.9272 6.41772Z" fill="white"/>
<path d="M5.80587 6.53393C5.8298 6.53393 5.84921 6.51453 5.84921 6.4906C5.84921 6.46667 5.8298 6.44727 5.80587 6.44727C5.78194 6.44727 5.76254 6.46667 5.76254 6.4906C5.76254 6.51453 5.78194 6.53393 5.80587 6.53393Z" fill="white"/>
<path d="M5.68741 6.65503C5.71135 6.65503 5.73075 6.63563 5.73075 6.61169C5.73075 6.58776 5.71135 6.56836 5.68741 6.56836C5.66348 6.56836 5.64408 6.58776 5.64408 6.61169C5.64408 6.63563 5.66348 6.65503 5.68741 6.65503Z" fill="white"/>
<path d="M5.9272 6.65503C5.95114 6.65503 5.97054 6.63563 5.97054 6.61169C5.97054 6.58776 5.95114 6.56836 5.9272 6.56836C5.90327 6.56836 5.88387 6.58776 5.88387 6.61169C5.88387 6.63563 5.90327 6.65503 5.9272 6.65503Z" fill="white"/>
<path d="M4.98542 7.31347C4.9849 7.37444 5.00763 7.43332 5.04898 7.47813C5.06827 7.49971 5.09186 7.51701 5.11822 7.52895C5.14458 7.54089 5.17315 7.5472 5.20209 7.54747C5.26276 7.54747 5.31765 7.51858 5.3552 7.47813C5.39655 7.43332 5.41928 7.37444 5.41876 7.31347V7.00146H4.98542V7.31347Z" fill="#003399"/>
<path d="M5.08658 7.16333C5.11051 7.16333 5.12991 7.14393 5.12991 7.11999C5.12991 7.09606 5.11051 7.07666 5.08658 7.07666C5.06265 7.07666 5.04325 7.09606 5.04325 7.11999C5.04325 7.14393 5.06265 7.16333 5.08658 7.16333Z" fill="white"/>
<path d="M5.32634 7.16333C5.35027 7.16333 5.36967 7.14393 5.36967 7.11999C5.36967 7.09606 5.35027 7.07666 5.32634 7.07666C5.30241 7.07666 5.283 7.09606 5.283 7.11999C5.283 7.14393 5.30241 7.16333 5.32634 7.16333Z" fill="white"/>
<path d="M5.205 7.27905C5.22894 7.27905 5.24834 7.25965 5.24834 7.23572C5.24834 7.21178 5.22894 7.19238 5.205 7.19238C5.18107 7.19238 5.16167 7.21178 5.16167 7.23572C5.16167 7.25965 5.18107 7.27905 5.205 7.27905Z" fill="white"/>
<path d="M5.08658 7.40014C5.11051 7.40014 5.12991 7.38074 5.12991 7.35681C5.12991 7.33288 5.11051 7.31348 5.08658 7.31348C5.06265 7.31348 5.04325 7.33288 5.04325 7.35681C5.04325 7.38074 5.06265 7.40014 5.08658 7.40014Z" fill="white"/>
<path d="M5.32634 7.40014C5.35027 7.40014 5.36967 7.38074 5.36967 7.35681C5.36967 7.33288 5.35027 7.31348 5.32634 7.31348C5.30241 7.31348 5.283 7.33288 5.283 7.35681C5.283 7.38074 5.30241 7.40014 5.32634 7.40014Z" fill="white"/>
</g>
<defs>
<clipPath id="clip0_176_9452">
<rect width="13" height="13" rx="6.5" fill="white"/>
</clipPath>
</defs>
</svg>
