<svg width="20" height="20" viewBox="0 0 20 20" fill="none" xmlns="http://www.w3.org/2000/svg">
<g clip-path="url(#clip0_132_5898)">
<path opacity="0.1" d="M16.25 11.125V16.75C16.25 16.9158 16.1842 17.0747 16.0669 17.1919C15.9497 17.3092 15.7908 17.375 15.625 17.375H4.375C4.20924 17.375 4.05027 17.3092 3.93306 17.1919C3.81585 17.0747 3.75 16.9158 3.75 16.75V11.125H16.25Z" fill="#F9F4F0"/>
<path d="M16.875 7.375H3.125C2.77982 7.375 2.5 7.65482 2.5 8V10.5C2.5 10.8452 2.77982 11.125 3.125 11.125H16.875C17.2202 11.125 17.5 10.8452 17.5 10.5V8C17.5 7.65482 17.2202 7.375 16.875 7.375Z" stroke="#F9F4F0" stroke-width="1.5" stroke-linecap="round" stroke-linejoin="round"/>
<path d="M16.25 11.125V16.75C16.25 16.9158 16.1842 17.0747 16.0669 17.1919C15.9497 17.3092 15.7908 17.375 15.625 17.375H4.375C4.20924 17.375 4.05027 17.3092 3.93306 17.1919C3.81585 17.0747 3.75 16.9158 3.75 16.75V11.125" stroke="#F9F4F0" stroke-width="1.5" stroke-linecap="round" stroke-linejoin="round"/>
<path d="M10 7.375V17.375" stroke="#F9F4F0" stroke-width="1.5" stroke-linecap="round" stroke-linejoin="round"/>
<path d="M13.8117 3.56349C14.5414 4.29318 14.5844 5.52131 13.8117 6.20568C12.4906 7.37521 10 7.37521 10 7.37521C10 7.37521 10 4.88459 11.1719 3.56349C11.8539 2.79084 13.082 2.83381 13.8117 3.56349Z" stroke="#F9F4F0" stroke-width="1.5" stroke-linecap="round" stroke-linejoin="round"/>
<path d="M6.18849 3.56349C5.45881 4.29318 5.41584 5.52131 6.18849 6.20568C7.50959 7.37521 10.0002 7.37521 10.0002 7.37521C10.0002 7.37521 10.0002 4.88459 8.82834 3.56349C8.14631 2.79084 6.91818 2.83381 6.18849 3.56349Z" stroke="#F9F4F0" stroke-width="1.5" stroke-linecap="round" stroke-linejoin="round"/>
</g>
<defs>
<clipPath id="clip0_132_5898">
<rect width="20" height="20" fill="white"/>
</clipPath>
</defs>
</svg>
