<svg width="20" height="20" viewBox="0 0 20 20" fill="none" xmlns="http://www.w3.org/2000/svg">
<path d="M16.4163 12.2687C17.7822 10.9168 19.1663 9.29646 19.1663 7.17609C19.1663 5.82545 18.6352 4.53013 17.6897 3.57508C16.7442 2.62004 15.4618 2.0835 14.1247 2.0835C12.5113 2.0835 11.3747 2.54646 9.99967 3.93535C8.62467 2.54646 7.48801 2.0835 5.87467 2.0835C4.53754 2.0835 3.25517 2.62004 2.30968 3.57508C1.36418 4.53013 0.833008 5.82545 0.833008 7.17609C0.833008 9.30572 2.20801 10.9261 3.58301 12.2687L8.81526 17.5538C9.46746 18.2126 10.5319 18.2126 11.1841 17.5538L16.4163 12.2687Z" fill="#F9F4F0" fill-opacity="0.08" stroke="#F9F4F0" stroke-width="1.5" stroke-linecap="round" stroke-linejoin="round"/>
<path d="M10.0003 3.93506L7.28696 6.6758C7.10072 6.86256 6.9529 7.08471 6.85202 7.32944C6.75115 7.57416 6.69922 7.83663 6.69922 8.10173C6.69922 8.36682 6.75115 8.62929 6.85202 8.87401C6.9529 9.11874 7.10072 9.34089 7.28696 9.52765C8.03863 10.2869 9.23946 10.3147 10.037 9.59247L11.9345 7.83321C12.4101 7.39728 13.0293 7.15579 13.6715 7.15579C14.3138 7.15579 14.933 7.39728 15.4086 7.83321L18.122 10.2962" fill="#79452E"/>
<path d="M10.0003 3.93506L7.28696 6.6758C7.10072 6.86256 6.9529 7.08471 6.85202 7.32944C6.75115 7.57416 6.69922 7.83663 6.69922 8.10173C6.69922 8.36682 6.75115 8.62929 6.85202 8.87401C6.9529 9.11874 7.10072 9.34089 7.28696 9.52765C8.03863 10.2869 9.23946 10.3147 10.037 9.59247L11.9345 7.83321C12.4101 7.39728 13.0293 7.15579 13.6715 7.15579C14.3138 7.15579 14.933 7.39728 15.4086 7.83321L18.122 10.2962" stroke="#F9F4F0" stroke-width="1.5" stroke-linecap="round" stroke-linejoin="round"/>
<path d="M15.5003 13.1946L13.667 11.3428L15.5003 13.1946Z" fill="#F9F4F0"/>
<path d="M15.5003 13.1946L13.667 11.3428" stroke="#F9F4F0" stroke-width="1.5" stroke-linecap="round" stroke-linejoin="round"/>
<path d="M12.7493 15.972L10.916 14.1201L12.7493 15.972Z" fill="#F9F4F0"/>
<path d="M12.7493 15.972L10.916 14.1201" stroke="#F9F4F0" stroke-width="1.5" stroke-linecap="round" stroke-linejoin="round"/>
</svg>
