<svg width="14" height="14" viewBox="0 0 14 14" fill="none" xmlns="http://www.w3.org/2000/svg">
<g clip-path="url(#clip0_179_10027)">
<path opacity="0.1" d="M10.2813 3.0625C9.99117 3.0625 9.71297 3.17773 9.50785 3.38285C9.30273 3.58797 9.1875 3.86617 9.1875 4.15625V2.40625C9.1875 2.11617 9.07227 1.83797 8.86715 1.63285C8.66203 1.42773 8.38383 1.3125 8.09375 1.3125C7.80367 1.3125 7.52547 1.42773 7.32035 1.63285C7.11523 1.83797 7 2.11617 7 2.40625V3.28125C7 2.99117 6.88477 2.71297 6.67965 2.50785C6.47453 2.30273 6.19633 2.1875 5.90625 2.1875C5.61617 2.1875 5.33797 2.30273 5.13285 2.50785C4.92773 2.71297 4.8125 2.99117 4.8125 3.28125V8.3125L3.79094 6.67188C3.64487 6.42271 3.40617 6.24144 3.12694 6.16761C2.84771 6.09379 2.55062 6.13341 2.30049 6.27782C2.05036 6.42224 1.86751 6.65973 1.79184 6.93846C1.71616 7.21719 1.75381 7.51455 1.89656 7.76562C3.67774 11.5238 4.58391 12.6875 7 12.6875C7.57453 12.6875 8.14344 12.5743 8.67424 12.3545C9.20504 12.1346 9.68734 11.8123 10.0936 11.4061C10.4998 10.9998 10.8221 10.5175 11.042 9.98674C11.2618 9.45594 11.375 8.88703 11.375 8.3125V4.15625C11.375 3.86617 11.2598 3.58797 11.0546 3.38285C10.8495 3.17773 10.5713 3.0625 10.2813 3.0625Z" fill="#082141"/>
<path d="M9.1875 4.15625C9.1875 3.86617 9.30273 3.58797 9.50785 3.38285C9.71297 3.17773 9.99117 3.0625 10.2813 3.0625C10.5713 3.0625 10.8495 3.17773 11.0546 3.38285C11.2598 3.58797 11.375 3.86617 11.375 4.15625V8.3125C11.375 8.88703 11.2618 9.45594 11.042 9.98674C10.8221 10.5175 10.4998 10.9998 10.0936 11.4061C9.68734 11.8123 9.20504 12.1346 8.67424 12.3545C8.14344 12.5743 7.57453 12.6875 7 12.6875C4.58391 12.6875 3.67774 11.5238 1.89656 7.76562C1.75381 7.51455 1.71616 7.21719 1.79184 6.93846C1.86751 6.65973 2.05036 6.42224 2.30049 6.27782C2.55062 6.13341 2.84771 6.09379 3.12694 6.16761C3.40617 6.24144 3.64487 6.42271 3.79094 6.67188L4.8125 8.3125V3.28125C4.8125 2.99117 4.92773 2.71297 5.13285 2.50785C5.33797 2.30273 5.61617 2.1875 5.90625 2.1875C6.19633 2.1875 6.47453 2.30273 6.67965 2.50785C6.88477 2.71297 7 2.99117 7 3.28125" stroke="#082141" stroke-linecap="round" stroke-linejoin="round"/>
<path d="M7 6.5625V2.40625C7 2.11617 7.11523 1.83797 7.32035 1.63285C7.52547 1.42773 7.80367 1.3125 8.09375 1.3125C8.38383 1.3125 8.66203 1.42773 8.86715 1.63285C9.07227 1.83797 9.1875 2.11617 9.1875 2.40625V6.5625" stroke="#082141" stroke-linecap="round" stroke-linejoin="round"/>
</g>
<defs>
<clipPath id="clip0_179_10027">
<rect width="14" height="14" fill="white"/>
</clipPath>
</defs>
</svg>
