<svg width="20" height="20" viewBox="0 0 20 20" fill="none" xmlns="http://www.w3.org/2000/svg">
<g clip-path="url(#clip0_176_9600)">
<path opacity="0.04" d="M13.75 2.5H6.25C5.25544 2.5 4.30161 2.89509 3.59835 3.59835C2.89509 4.30161 2.5 5.25544 2.5 6.25V13.75C2.5 14.7446 2.89509 15.6984 3.59835 16.4017C4.30161 17.1049 5.25544 17.5 6.25 17.5H13.75C14.7446 17.5 15.6984 17.1049 16.4017 16.4017C17.1049 15.6984 17.5 14.7446 17.5 13.75V6.25C17.5 5.25544 17.1049 4.30161 16.4017 3.59835C15.6984 2.89509 14.7446 2.5 13.75 2.5ZM10 13.125C9.38193 13.125 8.77775 12.9417 8.26384 12.5983C7.74994 12.255 7.3494 11.7669 7.11288 11.1959C6.87635 10.6249 6.81447 9.99653 6.93505 9.39034C7.05562 8.78415 7.35325 8.22733 7.79029 7.79029C8.22733 7.35325 8.78415 7.05562 9.39034 6.93505C9.99653 6.81447 10.6249 6.87635 11.1959 7.11288C11.7669 7.3494 12.255 7.74994 12.5983 8.26384C12.9417 8.77775 13.125 9.38193 13.125 10C13.125 10.8288 12.7958 11.6237 12.2097 12.2097C11.6237 12.7958 10.8288 13.125 10 13.125Z" fill="#082141"/>
<path d="M13.75 2.5H6.25C4.17893 2.5 2.5 4.17893 2.5 6.25V13.75C2.5 15.8211 4.17893 17.5 6.25 17.5H13.75C15.8211 17.5 17.5 15.8211 17.5 13.75V6.25C17.5 4.17893 15.8211 2.5 13.75 2.5Z" stroke="#082141" stroke-width="1.5" stroke-linecap="round" stroke-linejoin="round"/>
<path d="M10 13.125C11.7259 13.125 13.125 11.7259 13.125 10C13.125 8.27411 11.7259 6.875 10 6.875C8.27411 6.875 6.875 8.27411 6.875 10C6.875 11.7259 8.27411 13.125 10 13.125Z" stroke="#082141" stroke-width="1.5" stroke-miterlimit="10"/>
<path d="M14.0625 6.875C14.5803 6.875 15 6.45527 15 5.9375C15 5.41973 14.5803 5 14.0625 5C13.5447 5 13.125 5.41973 13.125 5.9375C13.125 6.45527 13.5447 6.875 14.0625 6.875Z" fill="#082141"/>
</g>
<defs>
<clipPath id="clip0_176_9600">
<rect width="20" height="20" fill="white"/>
</clipPath>
</defs>
</svg>
