<svg width="14" height="14" viewBox="0 0 14 14" fill="none" xmlns="http://www.w3.org/2000/svg">
<g clip-path="url(#clip0_132_6114)">
<path opacity="0.2" d="M8.9179 6.125L3.75579 11.2861L2.71282 10.2451L7.87493 5.08203L8.9179 6.125Z" fill="#082141" stroke="#082141"/>
<path d="M11.8125 7V9.625" stroke="#082141" stroke-linecap="round" stroke-linejoin="round"/>
<path d="M10.5 8.3125H13.125" stroke="#082141" stroke-linecap="round" stroke-linejoin="round"/>
<path d="M4.375 2.1875V4.8125" stroke="#082141" stroke-linecap="round" stroke-linejoin="round"/>
<path d="M3.0625 3.5H5.6875" stroke="#082141" stroke-linecap="round" stroke-linejoin="round"/>
<path d="M9.1875 10.0625V11.8125" stroke="#082141" stroke-linecap="round" stroke-linejoin="round"/>
<path d="M8.3125 10.9375H10.0625" stroke="#082141" stroke-linecap="round" stroke-linejoin="round"/>
<path d="M7.875 4.375L9.625 6.125" stroke="#082141" stroke-linecap="round" stroke-linejoin="round"/>
<path d="M9.93396 2.31555L2.31522 9.93429C2.14436 10.1051 2.14436 10.3822 2.31522 10.553L3.44631 11.6841C3.61717 11.855 3.89418 11.855 4.06503 11.6841L11.6838 4.06536C11.8546 3.89451 11.8546 3.6175 11.6838 3.44664L10.5527 2.31555C10.3818 2.1447 10.1048 2.1447 9.93396 2.31555Z" stroke="#082141" stroke-linecap="round" stroke-linejoin="round"/>
</g>
<defs>
<clipPath id="clip0_132_6114">
<rect width="14" height="14" fill="white"/>
</clipPath>
</defs>
</svg>
