<svg width="20" height="20" viewBox="0 0 20 20" fill="none" xmlns="http://www.w3.org/2000/svg">
<g clip-path="url(#clip0_176_9595)">
<path opacity="0.04" d="M6.24452 16.4932C7.81994 17.405 9.67318 17.7127 11.4587 17.359C13.2443 17.0053 14.8403 16.0143 15.9491 14.5708C17.058 13.1273 17.604 11.3298 17.4854 9.51341C17.3669 7.69704 16.5918 5.98577 15.3047 4.69866C14.0176 3.41156 12.3063 2.63646 10.4899 2.51789C8.67355 2.39932 6.87604 2.94537 5.43253 4.05422C3.98901 5.16308 2.99803 6.75906 2.64433 8.54461C2.29063 10.3302 2.59836 12.1834 3.51015 13.7588L2.5328 16.6768C2.49608 16.7869 2.49075 16.9051 2.51741 17.0181C2.54407 17.131 2.60168 17.2344 2.68376 17.3165C2.76584 17.3985 2.86917 17.4561 2.98215 17.4828C3.09513 17.5095 3.21331 17.5041 3.32343 17.4674L6.24452 16.4932Z" fill="#082141"/>
<path d="M6.25 11.25L8.75 8.75L11.25 11.25L13.75 8.75" stroke="#082141" stroke-width="1.5" stroke-linecap="round" stroke-linejoin="round"/>
<path d="M6.24452 16.4932C7.81994 17.405 9.67318 17.7127 11.4587 17.359C13.2443 17.0053 14.8403 16.0143 15.9491 14.5708C17.058 13.1273 17.604 11.3298 17.4854 9.51341C17.3669 7.69704 16.5918 5.98577 15.3047 4.69866C14.0176 3.41156 12.3063 2.63646 10.4899 2.51789C8.67355 2.39932 6.87604 2.94537 5.43253 4.05422C3.98901 5.16308 2.99803 6.75906 2.64433 8.54461C2.29063 10.3302 2.59836 12.1834 3.51015 13.7588L2.5328 16.6768C2.49608 16.7869 2.49075 16.9051 2.51741 17.0181C2.54407 17.131 2.60168 17.2344 2.68376 17.3165C2.76584 17.3985 2.86917 17.4561 2.98215 17.4828C3.09513 17.5095 3.21331 17.5041 3.32343 17.4674L6.24452 16.4932Z" stroke="#082141" stroke-width="1.5" stroke-linecap="round" stroke-linejoin="round"/>
</g>
<defs>
<clipPath id="clip0_176_9595">
<rect width="20" height="20" fill="white"/>
</clipPath>
</defs>
</svg>
