<svg width="14" height="14" viewBox="0 0 14 14" fill="none" xmlns="http://www.w3.org/2000/svg">
<g clip-path="url(#clip0_132_6127)">
<path opacity="0.08" d="M10.5 11.8125V2.1875C10.5 1.70425 10.1082 1.3125 9.625 1.3125L4.375 1.3125C3.89175 1.3125 3.5 1.70425 3.5 2.1875L3.5 11.8125C3.5 12.2957 3.89175 12.6875 4.375 12.6875H9.625C10.1082 12.6875 10.5 12.2957 10.5 11.8125Z" fill="#082141"/>
<path d="M10.5 11.8125V2.1875C10.5 1.70425 10.1082 1.3125 9.625 1.3125L4.375 1.3125C3.89175 1.3125 3.5 1.70425 3.5 2.1875L3.5 11.8125C3.5 12.2957 3.89175 12.6875 4.375 12.6875H9.625C10.1082 12.6875 10.5 12.2957 10.5 11.8125Z" stroke="#082141" stroke-width="1.2" stroke-linecap="round" stroke-linejoin="round"/>
<path d="M7 3.9375C7.36244 3.9375 7.65625 3.64369 7.65625 3.28125C7.65625 2.91881 7.36244 2.625 7 2.625C6.63756 2.625 6.34375 2.91881 6.34375 3.28125C6.34375 3.64369 6.63756 3.9375 7 3.9375Z" fill="#082141"/>
</g>
<defs>
<clipPath id="clip0_132_6127">
<rect width="14" height="14" fill="white"/>
</clipPath>
</defs>
</svg>
