<svg width="14" height="14" viewBox="0 0 14 14" fill="none" xmlns="http://www.w3.org/2000/svg">
<g clip-path="url(#clip0_199_343)">
<path opacity="0.1" d="M9.05957 1.44079L1.44083 9.05954C1.26997 9.23039 1.26997 9.5074 1.44083 9.67826L4.32212 12.5595C4.49298 12.7304 4.76999 12.7304 4.94084 12.5595L12.5596 4.94081C12.7304 4.76995 12.7304 4.49294 12.5596 4.32209L9.67829 1.44079C9.50744 1.26994 9.23043 1.26994 9.05957 1.44079Z" fill="#082141"/>
<path d="M9.05957 1.44079L1.44083 9.05954C1.26997 9.23039 1.26997 9.5074 1.44083 9.67826L4.32212 12.5595C4.49298 12.7304 4.76999 12.7304 4.94084 12.5595L12.5596 4.94081C12.7304 4.76995 12.7304 4.49294 12.5596 4.32209L9.67829 1.44079C9.50744 1.26994 9.23043 1.26994 9.05957 1.44079Z" stroke="#082141" stroke-width="1.5" stroke-linecap="round" stroke-linejoin="bevel"/>
<path d="M7 3.5L8.75 5.25" stroke="#082141" stroke-width="1.5" stroke-linejoin="round"/>
<path d="M5.25 5.25L7 7" stroke="#082141" stroke-width="1.5" stroke-linejoin="round"/>
<path d="M3.5 7L5.25 8.75" stroke="#082141" stroke-width="1.5" stroke-linejoin="round"/>
</g>
<defs>
<clipPath id="clip0_199_343">
<rect width="14" height="14" fill="white"/>
</clipPath>
</defs>
</svg>
