<svg width="14" height="14" viewBox="0 0 14 14" fill="none" xmlns="http://www.w3.org/2000/svg">
<g clip-path="url(#clip0_199_272)">
<path opacity="0.2" d="M4.15625 5.6875C5.00194 5.6875 5.6875 5.00194 5.6875 4.15625C5.6875 3.31056 5.00194 2.625 4.15625 2.625C3.31056 2.625 2.625 3.31056 2.625 4.15625C2.625 5.00194 3.31056 5.6875 4.15625 5.6875Z" fill="#082141"/>
<path opacity="0.2" d="M9.84375 11.375C10.6894 11.375 11.375 10.6894 11.375 9.84375C11.375 8.99806 10.6894 8.3125 9.84375 8.3125C8.99806 8.3125 8.3125 8.99806 8.3125 9.84375C8.3125 10.6894 8.99806 11.375 9.84375 11.375Z" fill="#082141"/>
<path d="M10.9375 3.0625L3.0625 10.9375" stroke="#082141" stroke-width="1.5" stroke-linejoin="round"/>
<path d="M4.15625 5.6875C5.00194 5.6875 5.6875 5.00194 5.6875 4.15625C5.6875 3.31056 5.00194 2.625 4.15625 2.625C3.31056 2.625 2.625 3.31056 2.625 4.15625C2.625 5.00194 3.31056 5.6875 4.15625 5.6875Z" stroke="#082141" stroke-width="1.5" stroke-linecap="round" stroke-linejoin="round"/>
<path d="M9.84375 11.375C10.6894 11.375 11.375 10.6894 11.375 9.84375C11.375 8.99806 10.6894 8.3125 9.84375 8.3125C8.99806 8.3125 8.3125 8.99806 8.3125 9.84375C8.3125 10.6894 8.99806 11.375 9.84375 11.375Z" stroke="#082141" stroke-width="1.5" stroke-linecap="round" stroke-linejoin="round"/>
</g>
<defs>
<clipPath id="clip0_199_272">
<rect width="14" height="14" fill="white"/>
</clipPath>
</defs>
</svg>
