<svg width="16" height="16" viewBox="0 0 16 16" fill="none" xmlns="http://www.w3.org/2000/svg">
<g clip-path="url(#clip0_247_9048)">
<path d="M4.24638 11.7536C3.7768 11.284 4.08815 10.2974 3.84928 9.71958C3.60121 9.1229 2.69165 8.638 2.69165 7.99998C2.69165 7.36196 3.60121 6.87707 3.84928 6.28039C4.08815 5.70311 3.7768 4.71596 4.24638 4.24638C4.71596 3.7768 5.70311 4.08815 6.28039 3.84928C6.87962 3.60121 7.36196 2.69165 7.99998 2.69165C8.638 2.69165 9.1229 3.60121 9.71958 3.84928C10.2974 4.08815 11.284 3.7768 11.7536 4.24638C12.2232 4.71596 11.9118 5.7026 12.1507 6.28039C12.3988 6.87962 13.3083 7.36196 13.3083 7.99998C13.3083 8.638 12.3988 9.1229 12.1507 9.71958C11.9118 10.2974 12.2232 11.284 11.7536 11.7536C11.284 12.2232 10.2974 11.9118 9.71958 12.1507C9.1229 12.3988 8.638 13.3083 7.99998 13.3083C7.36196 13.3083 6.87707 12.3988 6.28039 12.1507C5.70311 11.9118 4.71596 12.2232 4.24638 11.7536Z" fill="#082141"/>
<path d="M4.04018 11.9597C3.54479 11.4644 3.87326 10.4235 3.62126 9.81398C3.35956 9.18452 2.40002 8.67298 2.40002 7.9999C2.40002 7.32683 3.35956 6.81529 3.62126 6.18583C3.87326 5.57683 3.54479 4.53544 4.04018 4.04006C4.53556 3.54467 5.57695 3.87313 6.18595 3.62113C6.8181 3.35944 7.32695 2.3999 8.00002 2.3999C8.6731 2.3999 9.18464 3.35944 9.8141 3.62113C10.4236 3.87313 11.4645 3.54467 11.9599 4.04006C12.4553 4.53544 12.1268 5.57629 12.3788 6.18583C12.6405 6.81798 13.6 7.32683 13.6 7.9999C13.6 8.67298 12.6405 9.18452 12.3788 9.81398C12.1268 10.4235 12.4553 11.4644 11.9599 11.9597C11.4645 12.4551 10.4236 12.1267 9.8141 12.3787C9.18464 12.6404 8.6731 13.5999 8.00002 13.5999C7.32695 13.5999 6.81541 12.6404 6.18595 12.3787C5.57695 12.1267 4.53556 12.4551 4.04018 11.9597Z" stroke="#082141" stroke-width="1.5" stroke-linecap="round" stroke-linejoin="round"/>
<path d="M6.27338 7.96406L7.56568 9.25637L9.86669 6.6001" stroke="#F4EFEB" stroke-width="1.3" stroke-linecap="round" stroke-linejoin="round"/>
</g>
<defs>
<clipPath id="clip0_247_9048">
<rect width="16" height="16" fill="white"/>
</clipPath>
</defs>
</svg>
