<svg width="18" height="16" viewBox="0 0 18 16" fill="none" xmlns="http://www.w3.org/2000/svg">
<path d="M9.41667 14.6668H4.75C3.50749 14.6668 2.88623 14.6668 2.39618 14.4638C1.74277 14.1932 1.22364 13.6741 0.952988 13.0207C0.75 12.5306 0.75 11.9093 0.75 10.6668V6.13349C0.75 4.13364 0.75 3.13371 1.25929 2.43274C1.42377 2.20635 1.62285 2.00726 1.84924 1.84278C2.55021 1.3335 3.55014 1.3335 5.55 1.3335H11.95C13.9499 1.3335 14.9498 1.3335 15.6508 1.84278C15.8771 2.00726 16.0762 2.20635 16.2407 2.43274C16.75 3.13371 16.75 4.13364 16.75 6.1335V8.00016" stroke="#082141" stroke-width="1.5"/>
<path d="M1.41667 5.3335H16.75" stroke="url(#paint0_linear_163_6854)" stroke-width="1.5"/>
<path d="M16.0833 11.3335H12.0833C11.7151 11.3335 11.4167 11.632 11.4167 12.0002V14.0002C11.4167 14.3684 11.7151 14.6668 12.0833 14.6668H16.0833C16.4515 14.6668 16.75 14.3684 16.75 14.0002V12.0002C16.75 11.632 16.4515 11.3335 16.0833 11.3335Z" fill="#082141" fill-opacity="0.1" stroke="#082141" stroke-width="1.5" stroke-linecap="round" stroke-linejoin="round"/>
<path d="M15.4167 11.3332V9.99984C15.4167 9.64622 15.2762 9.30708 15.0261 9.05703C14.7761 8.80698 14.437 8.6665 14.0833 8.6665C13.7297 8.6665 13.3906 8.80698 13.1405 9.05703C12.8905 9.30708 12.75 9.64622 12.75 9.99984V11.3332" stroke="#082141" stroke-width="1.5" stroke-linecap="round" stroke-linejoin="round"/>
<defs>
<linearGradient id="paint0_linear_163_6854" x1="16.75" y1="5.3335" x2="0.749999" y2="5.3335" gradientUnits="userSpaceOnUse">
<stop stop-color="#082141"/>
<stop offset="0.38124" stop-color="#082141" stop-opacity="0.6"/>
<stop offset="1" stop-color="#082141" stop-opacity="0"/>
</linearGradient>
</defs>
</svg>
