<svg width="14" height="14" viewBox="0 0 14 14" fill="none" xmlns="http://www.w3.org/2000/svg">
<g clip-path="url(#clip0_199_329)">
<path opacity="0.1" d="M6.99902 2.71875C8.13432 2.71998 9.22261 3.17183 10.0254 3.97461C10.7779 4.7271 11.2217 5.73029 11.2754 6.78809L11.2812 7.00098C11.2811 7.84739 11.0298 8.67513 10.5596 9.37891C10.0892 10.0827 9.42069 10.6311 8.63867 10.9551C7.85647 11.2791 6.99543 11.3643 6.16504 11.1992C5.33456 11.034 4.5714 10.6261 3.97266 10.0273C3.37391 9.4286 2.96597 8.66544 2.80078 7.83496C2.63567 7.00457 2.72092 6.14353 3.04492 5.36133C3.36893 4.57931 3.91731 3.91078 4.62109 3.44043C5.32487 2.97018 6.15261 2.71894 6.99902 2.71875Z" fill="#082141" stroke="#082141" stroke-width="1.5"/>
<path d="M7 3.5V10.5" stroke="#082141" stroke-width="1.5" stroke-linejoin="round"/>
<path d="M5.6875 2.1875L7 3.5L8.3125 2.1875" stroke="#082141" stroke-width="1.5" stroke-linejoin="round"/>
<path d="M5.6875 11.8125L7 10.5L8.3125 11.8125" stroke="#082141" stroke-width="1.5" stroke-linejoin="round"/>
<path d="M3.96863 5.25L10.0313 8.75" stroke="#082141" stroke-width="1.5" stroke-linejoin="round"/>
<path d="M2.1875 5.6875L3.96867 5.25L3.5 3.5" stroke="#082141" stroke-width="1.5" stroke-linejoin="round"/>
<path d="M10.5 10.5L10.0314 8.75L11.8125 8.3125" stroke="#082141" stroke-width="1.5" stroke-linejoin="round"/>
<path d="M3.96863 8.75L10.0313 5.25" stroke="#082141" stroke-width="1.5" stroke-linejoin="round"/>
<path d="M3.5 10.5L3.96867 8.75L2.1875 8.3125" stroke="#082141" stroke-width="1.5" stroke-linejoin="round"/>
<path d="M11.8125 5.6875L10.0314 5.25L10.5 3.5" stroke="#082141" stroke-width="1.5" stroke-linejoin="round"/>
</g>
<defs>
<clipPath id="clip0_199_329">
<rect width="14" height="14" fill="white"/>
</clipPath>
</defs>
</svg>
