<svg width="14" height="14" viewBox="0 0 14 14" fill="none" xmlns="http://www.w3.org/2000/svg">
<g clip-path="url(#clip0_179_10065)">
<path opacity="0.2" d="M7 9.625C8.44975 9.625 9.625 8.44975 9.625 7C9.625 5.55025 8.44975 4.375 7 4.375C5.55025 4.375 4.375 5.55025 4.375 7C4.375 8.44975 5.55025 9.625 7 9.625Z" fill="black"/>
<path d="M7 7L12.25 1.75" stroke="#082141" stroke-linecap="round" stroke-linejoin="round"/>
<path d="M10.7122 3.28787C9.78229 2.36016 8.53806 1.81526 7.22565 1.76096C5.91325 1.70666 4.62826 2.14691 3.6249 2.99463C2.62154 3.84236 1.9729 5.03579 1.8073 6.33884C1.64169 7.64188 1.97119 8.95963 2.7306 10.0314C3.49001 11.1031 4.62402 11.8508 5.90828 12.1265C7.19255 12.4023 8.53352 12.1859 9.66592 11.5203C10.7983 10.8547 11.6397 9.7883 12.0235 8.5321C12.4073 7.2759 12.3057 5.92139 11.7387 4.73654" stroke="#082141" stroke-linecap="round" stroke-linejoin="round"/>
<path d="M8.8561 5.14394C8.42186 4.71023 7.84939 4.44239 7.23817 4.38695C6.62695 4.33152 6.01563 4.492 5.51045 4.84051C5.00528 5.18902 4.63818 5.70352 4.47297 6.29459C4.30776 6.88566 4.35487 7.51594 4.60613 8.07588C4.85738 8.63582 5.29689 9.09002 5.84827 9.35955C6.39965 9.62907 7.02803 9.69688 7.62422 9.55119C8.2204 9.4055 8.74669 9.05551 9.11162 8.56206C9.47654 8.06862 9.65703 7.4629 9.62172 6.85019" stroke="#082141" stroke-linecap="round" stroke-linejoin="round"/>
</g>
<defs>
<clipPath id="clip0_179_10065">
<rect width="14" height="14" fill="white"/>
</clipPath>
</defs>
</svg>
