<svg width="16" height="17" viewBox="0 0 16 17" fill="none" xmlns="http://www.w3.org/2000/svg">
<path d="M2.66667 0.75H5.6C6.59993 0.75 7.09989 0.75 7.45038 1.00464C7.56357 1.08688 7.66312 1.18643 7.74536 1.29962C8 1.65011 8 2.15007 8 3.15V13.4167H0" stroke="#082141" stroke-width="1.5"/>
<path d="M8 4.08301H10.1973C12.0713 4.08301 13.0083 4.08301 13.6889 4.54847C13.9094 4.69923 14.106 4.88225 14.272 5.09141C14.7848 5.73718 14.8516 6.67179 14.9851 8.54102L15.1497 10.8453C15.2257 11.9093 15.2637 12.4412 15.0126 12.8199C14.9317 12.9418 14.8314 13.0496 14.7155 13.1389C14.3557 13.4163 13.8224 13.4163 12.7558 13.4163H8V4.08301Z" fill="#082141" fill-opacity="0.08" stroke="#082141" stroke-width="1.5"/>
<circle cx="11.6667" cy="13.7497" r="1.66667" fill="#F9F4F0" stroke="#082141" stroke-width="1.5"/>
<circle cx="4.33307" cy="13.7497" r="1.66667" fill="#F9F4F0" stroke="#082141" stroke-width="1.5"/>
<path d="M14.6664 8.75L13.7331 8.75C12.7331 8.75 12.2332 8.75 11.8827 8.49536C11.7695 8.41312 11.67 8.31357 11.5877 8.20038C11.3331 7.84989 11.3331 7.34986 11.3331 6.34978C11.3331 5.15197 11.3331 4.08333 11.3331 4.08333" stroke="#082141" stroke-width="1.5"/>
<path d="M5.33359 8.75L0.666927 8.75" stroke="#082141" stroke-width="1.5"/>
<path d="M5.33359 4.75L2.00026 4.75" stroke="#082141" stroke-width="1.5"/>
</svg>
