<svg width="14" height="14" viewBox="0 0 14 14" fill="none" xmlns="http://www.w3.org/2000/svg">
<g clip-path="url(#clip0_277_467)">
<path d="M7 12.0312C7.48325 12.0312 7.875 11.6395 7.875 11.1562C7.875 10.673 7.48325 10.2812 7 10.2812C6.51675 10.2812 6.125 10.673 6.125 11.1562C6.125 11.6395 6.51675 12.0312 7 12.0312Z" fill="#082141"/>
<path d="M12.6875 5.09625C11.0839 3.78104 9.07398 3.06226 7 3.06226C4.92602 3.06226 2.91613 3.78104 1.3125 5.09625" stroke="#082141" stroke-width="1.2" stroke-linecap="round" stroke-linejoin="round"/>
<path d="M10.9375 7.05471C9.81681 6.16752 8.42935 5.68481 7 5.68481C5.57065 5.68481 4.18319 6.16752 3.0625 7.05471" stroke="#082141" stroke-width="1.2" stroke-linecap="round" stroke-linejoin="round"/>
<path d="M9.1875 9.02345C8.55185 8.56108 7.78603 8.31201 7 8.31201C6.21397 8.31201 5.44815 8.56108 4.8125 9.02345" stroke="#082141" stroke-width="1.2" stroke-linecap="round" stroke-linejoin="round"/>
</g>
<defs>
<clipPath id="clip0_277_467">
<rect width="14" height="14" fill="white"/>
</clipPath>
</defs>
</svg>
